<svg width="122" height="312" viewBox="0 0 122 312" fill="none" xmlns="http://www.w3.org/2000/svg">
<g clip-path="url(#clip0)">
<path d="M116.676 12.1138C116.676 12.1138 117.8 8.46656 114.902 7.71043C112.003 6.9543 109.105 6.4947 109.105 6.4947C109.105 6.4947 107.7 4.52283 105.083 4.15217C102.465 3.78152 94.7163 2.37305 91.2559 2.28409C87.7956 2.19514 79.7658 1.52796 76.3054 1.26109C72.845 0.979393 61.7393 -0.147391 54.0792 1.26109C46.4191 2.66957 44.7333 1.26108 35.7718 2.01722C26.8104 2.77335 20.2741 3.79636 13.6344 4.5525C7.00941 5.30863 2.05547 6.42058 1.68577 12.1435C1.31608 17.8663 0.842866 57.882 0.561897 70.5287C0.280929 83.1754 2.09985 113.791 2.80967 128.262C3.51948 142.732 4.90955 165.623 3.65258 192.31C2.39561 218.997 2.24773 222.23 2.80967 238.242C3.37161 254.254 4.4955 294.284 4.34762 299.058C4.21453 303.832 4.21453 307.02 7.2904 308.043C10.3663 309.066 16.4441 310.104 19.8009 310.475C19.8009 310.475 24.3704 311.231 34.4705 311.409C44.5706 311.587 90.4426 311.483 108.366 308.577C108.366 308.577 112.196 308.206 112.758 306.798C112.758 306.798 119.013 306.145 119.382 303.996C119.752 301.846 119.575 300.808 119.944 299.311C120.314 297.813 120.965 292.757 120.787 284.321C120.61 275.885 120.846 272.431 120.817 270.652C120.787 268.872 120.684 265.878 118.909 264.662L118.717 254.358C118.717 254.358 120.654 252.771 120.802 248.65C120.95 244.528 120.802 228.797 120.802 228.797C120.802 228.797 120.95 225.328 118.155 223.653L119.087 211.673C119.087 211.673 120.388 210.739 120.211 207.833C120.033 204.927 118.806 193.126 118.806 193.126C118.806 193.126 121.423 191.065 121.423 187.136C121.423 183.207 121.423 167.936 121.423 167.936C121.423 167.936 121.334 163.622 118.347 161.472C118.347 161.472 118.155 153.792 118.066 151.272C118.066 151.272 121.423 149.3 121.423 144.808C121.423 140.315 120.773 128.039 120.669 125.326C120.566 122.613 120.018 121.204 118.983 120.641C118.983 120.641 119.634 107.713 119.634 105.652C119.634 103.591 119.826 101.901 117.771 100.314L116.085 90.0102C116.085 90.0102 119.915 87.386 119.826 84.3022C119.737 81.2183 118.702 63.7976 118.702 63.7976C118.702 63.7976 118.51 60.2394 118.14 59.7649C117.771 59.2905 117.948 52.7374 117.386 47.311C117.386 47.311 118.791 45.6208 118.88 41.4992C118.968 37.3775 117.978 16.3541 116.676 12.1138Z" stroke="white" stroke-width="0.75" stroke-miterlimit="10"/>
<path d="M106.414 33.2843C106.073 33.0323 105.704 32.7951 105.275 32.7209C105.068 32.6913 104.831 32.7358 104.713 32.9137C104.595 33.0916 104.55 33.2992 104.521 33.5067C104.388 34.3518 104.299 35.1969 104.195 36.0568C104.003 37.7618 103.841 39.4668 103.693 41.1718C103.426 44.5818 103.205 48.0067 103.19 51.4167C103.19 54.8267 103.397 58.2515 103.619 61.6467C103.737 63.3221 103.826 65.1309 104.003 66.6876C104.151 67.4289 104.565 67.9775 105.231 68.274C105.866 68.5557 106.783 68.7633 107.478 68.7633C108.203 68.7781 108.794 68.4667 109.253 67.8589C109.682 67.2955 110.111 66.4356 110.495 65.7387C111.279 64.2561 111.796 62.6994 111.811 61.0537C111.915 57.614 112.166 54.204 112.344 50.7792L112.58 45.6493C112.61 43.9443 112.639 42.2245 112.61 40.5195C112.565 39.6744 112.491 38.8145 112.21 38.0139C111.959 37.1984 111.382 36.5313 110.702 36.0272C109.386 34.9597 107.892 34.1146 106.414 33.2843ZM106.414 33.2843C107.907 34.0998 109.416 34.93 110.761 35.9827C111.456 36.4868 112.063 37.1688 112.329 37.999C112.639 38.8145 112.728 39.6892 112.772 40.5343C112.832 42.2541 112.891 43.9591 112.935 45.679L112.905 50.8236C112.861 54.2485 112.772 57.6733 112.758 61.0982C112.772 62.8921 112.196 64.6861 111.397 66.228C110.968 67.0286 110.658 67.7254 110.081 68.5409C109.534 69.3267 108.469 69.9197 107.464 69.89C106.961 69.89 106.502 69.8011 106.073 69.6973C105.659 69.5935 105.186 69.4749 104.743 69.2525C103.826 68.8522 103.131 67.8589 102.983 66.91C102.791 65.0716 102.761 63.4555 102.657 61.706C102.524 58.2812 102.48 54.8415 102.613 51.4019C102.776 47.9622 103.145 44.5522 103.515 41.157C103.693 39.452 103.885 37.747 104.107 36.0568C104.21 35.2117 104.329 34.3518 104.476 33.5067C104.521 33.2992 104.55 33.0768 104.683 32.8989C104.817 32.7209 105.068 32.6616 105.275 32.7061C105.704 32.7802 106.073 33.0175 106.414 33.2843Z" fill="white"/>
<path d="M116.676 12.1129C116.366 15.7452 115.937 19.3777 115.479 22.9952C115.286 24.9819 113.867 26.6424 112.447 27.7544C111.722 28.3326 111.087 29.0146 109.963 29.3408C109.386 29.5039 108.676 29.3111 108.247 28.9553C107.878 28.6736 107.493 28.3919 107.138 28.0509C106.414 27.3689 105.881 26.4052 105.719 25.397C105.556 24.3889 105.674 23.3955 105.911 22.4763C106.414 20.712 106.902 18.9625 107.464 17.213C108.528 13.7289 109.623 10.2448 110.82 6.80512C110.051 10.3782 109.179 13.9217 108.292 17.4354C107.863 19.1997 107.36 20.9492 106.902 22.6987C106.488 24.3889 106.665 26.1532 107.922 27.2355C108.218 27.532 108.558 27.7989 108.913 28.0657C109.194 28.2733 109.445 28.3474 109.756 28.2881C110.406 28.1399 111.146 27.5172 111.826 26.9538C112.551 26.3607 113.172 25.8418 113.66 25.1302C114.133 24.4333 114.547 23.6772 114.665 22.8321C115.272 19.2739 115.922 15.6859 116.676 12.1129Z" fill="white"/>
<path d="M109.12 6.4939C109.223 7.26485 108.972 8.02098 108.794 8.76228C108.587 9.50359 108.336 10.2301 108.099 10.9714C107.641 12.4392 107.212 13.9218 106.813 15.4044C105.999 18.3696 105.26 21.3496 104.595 24.3593C103.234 30.3491 102.125 36.3981 101.607 42.5213C101.06 48.6297 100.72 54.7825 101.031 60.8908C101.327 67.014 102.303 73.0631 104.077 78.9342C107.375 90.7802 111.087 102.537 113.852 114.561C114.547 117.571 115.153 120.595 115.612 123.65C116.04 126.704 116.381 129.758 116.721 132.827C117.327 138.95 117.904 145.088 118.081 151.256C117.726 145.103 116.972 138.995 116.188 132.901C115.789 129.847 115.419 126.793 114.931 123.768C114.429 120.744 113.778 117.749 113.039 114.769C110.096 102.834 106.414 91.0916 103.027 79.2455C99.4337 67.3253 99.4189 54.649 100.779 42.4323C101.4 36.2795 102.613 30.2156 104.092 24.2259C104.846 21.231 105.674 18.2658 106.576 15.3302C107.02 13.8624 107.493 12.3947 107.996 10.9269C108.247 10.2004 108.528 9.48877 108.75 8.74747C108.927 8.02098 109.194 7.26485 109.12 6.4939Z" fill="white"/>
<path d="M118.362 161.486C118.288 167.668 118.081 173.851 117.697 180.033C117.253 186.201 116.721 192.383 115.464 198.492C114.162 204.57 112.373 210.486 110.732 216.446C109.061 222.391 107.404 228.352 105.985 234.356C102.761 246.291 102.717 258.775 104.033 271.021C104.713 277.144 105.733 283.253 107.582 289.124C108.469 292.074 109.578 294.95 110.702 297.841C111.737 300.703 113.053 303.683 112.758 306.811C112.965 303.683 111.56 300.777 110.436 297.945C109.238 295.099 108.04 292.237 107.049 289.302C105.068 283.416 103.959 277.278 103.175 271.125C101.681 258.849 101.741 246.158 104.905 234.104C107.789 222.036 111.722 210.279 114.636 198.299C115.981 192.309 116.602 186.142 117.164 179.989C117.712 173.836 118.111 167.668 118.362 161.486Z" fill="white"/>
<path d="M119.604 302.28C118.939 298.5 118.421 294.689 117.874 290.909C117.519 289.085 116.987 287.247 115.686 286.016C115.064 285.394 114.281 284.949 113.438 284.637C112.58 284.311 111.678 284.044 110.835 284.015C110.421 284 110.037 284.059 109.785 284.222C109.563 284.385 109.445 284.637 109.475 285.023C109.534 285.883 109.756 286.846 109.963 287.766C110.377 289.634 110.88 291.487 111.234 293.385C111.826 297.18 112.713 300.946 112.728 304.816C112.506 302.903 112.122 301.035 111.663 299.167L110.392 293.563L108.972 287.988C108.75 287.039 108.513 286.135 108.41 285.067C108.336 284.504 108.573 283.733 109.164 283.333C109.726 282.947 110.332 282.888 110.865 282.903C111.944 282.962 112.891 283.288 113.822 283.644C114.754 284.015 115.686 284.548 116.395 285.29C117.889 286.787 118.48 288.848 118.717 290.761C119.102 294.615 119.397 298.44 119.604 302.28Z" fill="white"/>
<path d="M111.471 278.449C110.865 279.042 110.007 279.427 109.135 279.338C108.706 279.279 108.277 279.175 107.922 278.908C107.567 278.641 107.375 278.226 107.242 277.811C106.768 276.15 106.68 274.416 106.532 272.711C106.236 269.286 105.97 265.861 105.748 262.422C105.526 258.997 105.319 255.557 105.26 252.103C105.275 250.383 105.231 248.633 105.556 246.869C105.719 246.009 105.881 245.149 106.207 244.274C106.369 243.844 106.576 243.4 106.902 242.999C107.212 242.584 107.744 242.243 108.292 242.139C108.839 242.051 109.356 242.139 109.8 242.258C110.244 242.392 110.643 242.525 111.072 242.688C111.9 243.014 112.728 243.429 113.453 244.022C114.946 245.164 115.745 247.106 115.73 248.915L115.76 259.234L115.774 269.538C115.745 271.213 115.907 273.081 114.872 274.549C113.793 275.913 112.743 277.277 111.471 278.449ZM111.471 278.449C112.713 277.262 113.748 275.884 114.784 274.52C115.774 273.067 115.582 271.228 115.582 269.553L115.168 259.249L114.754 248.959C114.724 247.329 114.044 245.802 112.787 244.853C112.166 244.363 111.441 244.008 110.672 243.711C109.904 243.444 109.061 243.133 108.469 243.251C107.892 243.311 107.478 243.933 107.183 244.675C106.902 245.416 106.709 246.246 106.547 247.062C106.221 248.693 106.221 250.383 106.192 252.103C106.147 255.527 106.192 258.967 106.28 262.392C106.369 265.832 106.488 269.256 106.68 272.681C106.813 274.386 106.872 276.121 107.316 277.781C107.449 278.182 107.626 278.582 107.966 278.849C108.292 279.116 108.72 279.234 109.135 279.294C109.992 279.397 110.85 279.027 111.471 278.449Z" fill="white"/>
<path d="M118.924 264.66C118.096 264.542 117.475 264.173 116.898 263.744C116.336 263.286 115.863 262.768 115.508 262.029C116.366 262.059 117.002 262.458 117.578 262.887C118.14 263.33 118.643 263.862 118.924 264.66Z" fill="white"/>
<path d="M118.732 254.365C118.495 255.178 118.022 255.755 117.505 256.272C116.957 256.76 116.351 257.189 115.523 257.366C115.76 256.538 116.233 255.962 116.75 255.459C117.298 254.986 117.904 254.557 118.732 254.365Z" fill="white"/>
<path d="M118.17 223.652C117.978 225.92 117.726 228.173 117.504 230.427C117.445 231.539 117.238 232.859 116.366 233.793C115.508 234.682 114.621 235.305 113.719 236.046C112.787 236.743 111.855 237.425 110.658 237.825C110.362 237.929 110.037 238.003 109.652 237.988C109.46 237.988 109.268 237.944 109.061 237.855C108.854 237.736 108.676 237.618 108.587 237.514C108.085 237.099 107.73 236.357 107.685 235.735C107.552 234.46 107.759 233.333 107.937 232.191C108.159 231.05 108.395 229.938 108.617 228.826L111.412 215.482L112.817 208.811C113.305 206.587 113.763 204.363 114.162 202.124C113.793 206.661 113.009 211.153 112.255 215.645C111.486 220.123 110.584 224.586 109.711 229.048C109.475 230.16 109.223 231.272 109.016 232.369C108.824 233.466 108.632 234.593 108.72 235.601C108.78 236.105 108.942 236.461 109.297 236.802C109.401 236.906 109.475 236.936 109.504 236.965C109.578 236.98 109.637 237.01 109.741 237.01C109.933 237.025 110.17 236.98 110.406 236.906C111.367 236.58 112.343 235.972 113.246 235.349C114.133 234.697 115.124 234.03 115.878 233.303C116.632 232.562 116.854 231.48 116.987 230.368C117.386 228.129 117.741 225.875 118.17 223.652Z" fill="white"/>
<path d="M118.835 193.137C118.569 194.112 118.066 194.866 117.49 195.561C116.898 196.241 116.233 196.847 115.301 197.276C115.552 196.315 116.07 195.561 116.647 194.852C117.238 194.157 117.918 193.536 118.835 193.137Z" fill="white"/>
<path d="M120.24 208.781C119.826 207.036 119.072 205.573 118.111 204.243C117.608 203.577 117.061 202.956 116.455 202.365C115.848 201.774 115.212 201.197 114.547 200.577C114.976 200.695 115.39 200.857 115.819 201.02C116.218 201.227 116.632 201.419 117.002 201.7C117.771 202.203 118.421 202.868 118.998 203.592C120.063 205.056 120.713 207.007 120.24 208.781Z" fill="white"/>
<path d="M119.013 120.64C118.199 120.121 117.445 119.543 116.676 118.965C116.307 118.668 115.937 118.357 115.582 118.016C115.198 117.704 114.887 117.141 114.724 116.696C114.369 115.747 114.222 114.754 114.192 113.746C114.177 113.257 114.222 112.693 114.443 112.159C114.636 111.67 114.872 111.24 115.094 110.81C116.011 109.135 117.164 107.563 117.682 105.888C118.199 104.153 117.859 102.241 117.785 100.328C118.066 101.247 118.303 102.167 118.495 103.116C118.658 104.064 118.687 105.087 118.51 106.081C118.081 108.127 116.928 109.698 116.055 111.359C115.833 111.759 115.597 112.174 115.434 112.56C115.271 112.901 115.242 113.316 115.227 113.761C115.198 114.65 115.316 115.569 115.523 116.429C115.656 116.874 115.774 117.2 116.085 117.541C116.381 117.897 116.706 118.223 117.031 118.564L119.013 120.64Z" fill="white"/>
<path d="M116.114 90.024C115.626 87.8001 115.212 85.5614 114.754 83.3226L114.443 81.6473C114.355 81.0987 114.222 80.5798 114.014 80.0757C113.6 79.0676 112.965 78.1632 112.151 77.4812C111.353 76.814 110.318 76.2654 109.356 75.7317C108.38 75.2276 107.33 74.7383 106.369 74.6494C105.866 74.6197 105.615 74.7235 105.526 75.0349C105.438 75.4055 105.497 75.8948 105.63 76.4582L106.34 79.794C107.242 84.2567 108.218 88.7045 109.09 93.1671C109.948 97.6446 110.82 102.122 111.427 106.644L108.262 93.3599C107.227 88.9269 106.251 84.4791 105.26 80.0312L104.595 76.6657C104.506 76.132 104.343 75.4648 104.55 74.7235C104.669 74.3677 104.964 73.9377 105.364 73.8043C105.748 73.6264 106.118 73.6264 106.443 73.656C107.744 73.8191 108.78 74.3529 109.815 74.9014C110.835 75.4796 111.811 76.043 112.728 76.8733C113.615 77.6887 114.281 78.7265 114.68 79.8533C114.887 80.4019 115.02 81.0098 115.079 81.588L115.316 83.2781C115.567 85.5021 115.878 87.7556 116.114 90.024Z" fill="white"/>
<path d="M111.427 65.4335C112.092 67.3996 112.403 69.3952 112.654 71.3908C112.861 73.4012 112.994 75.4117 112.772 77.4812C112.107 75.5299 111.782 73.5343 111.545 71.5239C111.338 69.5135 111.205 67.4735 111.427 65.4335Z" fill="white"/>
<path d="M117.431 47.3605C116.44 48.7797 115.345 50.1101 114.207 51.3814L114.103 51.4553C114.015 51.544 113.793 52.0022 113.734 52.3718C113.645 52.7709 113.615 53.1996 113.6 53.6431C113.541 54.4857 113.571 55.5205 113.896 55.8605C113.911 55.9048 114.207 56.0379 114.414 56.1709C114.621 56.2892 114.813 56.437 115.005 56.5701C115.39 56.8509 115.759 57.1318 116.114 57.4422C116.824 58.0483 117.504 58.7135 118.081 59.4526C117.297 58.9352 116.514 58.4622 115.73 57.9892L114.547 57.3092L113.955 56.9987C113.763 56.8805 113.6 56.8805 113.26 56.6292C112.698 56.1561 112.61 55.55 112.536 55.0474C112.477 54.53 112.477 54.057 112.506 53.5692C112.536 53.0961 112.58 52.6083 112.713 52.1057C112.876 51.5883 112.979 51.1153 113.615 50.6127L113.512 50.6866C114.754 49.5188 116.04 48.3953 117.431 47.3605Z" fill="white"/>
<path d="M111.915 37.2432C111.56 35.4102 111.604 33.5624 111.796 31.7441C112.018 29.9259 112.388 28.0929 113.231 26.4225C113.231 28.2851 113.083 30.0589 112.891 31.8624C112.669 33.6658 112.432 35.4545 111.915 37.2432Z" fill="white"/>
<path d="M115.124 234.477C115.375 236.339 115.286 238.143 115.124 239.961C114.917 241.765 114.636 243.553 114.015 245.327C113.763 243.479 113.852 241.661 114.015 239.843C114.207 238.039 114.503 236.236 115.124 234.477Z" fill="white"/>
<path d="M114.562 284.542C113.941 283.064 113.704 281.497 113.615 279.945C113.571 278.393 113.66 276.781 114.266 275.288C114.532 276.87 114.636 278.363 114.724 279.9C114.784 281.423 114.813 282.96 114.562 284.542Z" fill="white"/>
<path d="M99.5963 309.103C96.1951 303.38 93.134 297.449 90.5609 291.296C88.047 285.144 85.8732 278.754 84.9563 272.112C84.4831 268.79 84.3352 265.44 84.3796 262.104C84.3944 258.753 84.6605 255.417 85.045 252.096C85.8288 245.454 87.3224 238.916 89.23 232.526C91.0933 226.121 93.6959 219.939 96.3578 213.86C98.9456 207.737 101.282 201.525 103.264 195.164C107.227 182.488 109.415 169.189 109.031 155.92C108.839 149.278 107.833 142.71 106.369 136.245C104.92 129.766 103.042 123.391 100.927 117.105C98.7977 110.819 96.3873 104.636 93.8586 98.4835C91.3594 92.3307 88.7272 86.2075 86.4647 79.9213C84.2613 73.6054 82.6642 67.0522 81.9691 60.3805C81.2741 53.7236 81.4663 46.9629 82.5311 40.3653C84.9119 27.185 89.8215 14.657 95.6479 2.72196L95.7514 2.76645C90.2651 14.8497 85.5182 27.4222 83.3296 40.4988C81.3037 53.6198 83.1374 67.0967 87.5442 79.5506C89.7771 85.7776 92.4685 91.8711 94.9233 98.0535C97.4077 104.221 99.8033 110.448 101.903 116.779C104.018 123.11 105.822 129.544 107.182 136.068C108.573 142.591 109.504 149.233 109.622 155.92C109.963 169.293 107.434 182.547 103.648 195.298C101.741 201.688 99.4632 207.944 96.9345 214.112C94.317 220.235 91.8918 226.403 90.0877 232.793C89.1265 235.966 88.3575 239.198 87.6477 242.43C86.997 245.677 86.4055 248.938 85.9915 252.23C85.5774 255.521 85.2669 258.813 85.2373 262.134C85.1633 265.44 85.2816 268.761 85.7105 272.037C86.5386 278.605 88.6237 284.966 91.0785 291.119C93.5776 297.227 96.4021 303.261 99.685 309.043L99.5963 309.103Z" fill="white"/>
<path d="M85.3408 2.7179C81.7474 8.52973 78.4201 14.5046 75.5217 20.6723C72.6972 26.8399 69.9467 33.2448 69.4882 40.0648C68.8376 46.8552 68.5714 53.7048 69.4143 60.4655C70.2424 67.2262 72.0909 73.8238 74.664 80.1249C77.2223 86.426 80.6827 92.3416 83.7881 98.4203C86.9527 104.484 90.0434 110.593 92.7939 116.849C98.3246 129.318 102.51 142.735 102.554 156.583C102.539 163.462 101.726 170.327 100.188 177.028C98.6352 183.715 96.417 190.238 93.7552 196.554C91.0786 202.87 88.0323 208.993 84.912 215.072C81.7918 221.151 78.7159 227.244 76.2611 233.59C73.7767 239.92 71.8691 246.518 71.0262 253.264C70.6121 256.644 70.4495 260.04 70.5826 263.435C70.7452 266.83 71.1889 270.21 71.9578 273.516C73.5697 280.129 76.2463 286.46 79.263 292.568C82.2946 298.676 85.6958 304.622 89.4223 310.33C85.607 304.666 82.1319 298.765 79.0117 292.687C75.9062 286.608 73.1409 280.292 71.4255 273.635C69.8136 266.948 69.577 259.98 70.3903 253.16C71.2184 246.34 73.1113 239.683 75.5661 233.293C78.0061 226.888 81.0672 220.736 84.1578 214.657C87.2485 208.563 90.2652 202.44 92.8975 196.154C95.5001 189.868 97.6739 183.389 99.1823 176.761C100.676 170.134 101.46 163.329 101.445 156.553C101.46 142.943 97.393 129.629 91.951 117.19C89.2301 110.934 86.1838 104.84 83.0487 98.7761C79.9728 92.6826 76.5273 86.7522 73.969 80.377C71.4107 74.0166 69.5622 67.3448 68.7636 60.5248C67.9651 53.7048 68.2461 46.7958 68.9411 40.0055C69.503 33.0966 72.3571 26.6917 75.2555 20.5537C78.2722 14.4157 81.6882 8.48526 85.3408 2.7179Z" fill="white"/>
<path d="M52.4378 1.57404C48.6669 7.51929 45.2509 13.6869 42.2194 20.0325C40.7258 23.2053 39.3506 26.4522 38.2415 29.7732C37.1324 33.0942 36.4226 36.5338 35.8902 40.0031C33.746 53.8655 35.3283 68.3209 40.9477 81.1603C41.6131 82.7763 42.456 84.3182 43.2102 85.9046C44.0679 87.4317 44.9256 88.9588 45.8277 90.4562C47.7057 93.4214 49.7169 96.2977 51.8167 99.1295C55.9869 104.808 60.2458 110.427 63.9724 116.431C67.6841 122.421 70.967 128.722 73.2739 135.409C75.5956 142.081 76.8822 149.108 77.1632 156.18C77.3406 159.709 77.2519 163.267 76.7491 166.796C76.2463 170.309 75.3886 173.764 74.3535 177.144C72.2684 183.92 69.3404 190.399 66.1166 196.67C59.6987 209.257 52.0386 221.133 45.8129 233.72C42.7222 240.007 40.0604 246.575 38.9069 253.439C38.345 256.864 38.3746 260.392 38.5077 263.877C38.6408 265.626 38.6851 267.375 38.9661 269.11L39.321 271.72C39.4541 272.579 39.6611 273.439 39.8238 274.299C41.2286 281.164 43.6539 287.821 46.9515 294.018C50.1901 300.245 54.242 306.057 58.9002 311.32L58.8114 311.394C49.2437 301.09 42.0124 288.354 39.0252 274.462C38.8478 273.588 38.626 272.728 38.4781 271.868L38.0936 269.244C37.7831 267.494 37.7091 265.715 37.5612 263.951C37.3838 260.422 37.3099 256.849 37.8422 253.306C38.9365 246.234 41.7018 239.591 44.7777 233.246C50.9886 220.525 58.7227 208.709 65.185 196.225C68.4087 189.984 71.3811 183.593 73.5253 176.922C74.5901 173.586 75.4773 170.191 76.0097 166.721C76.5569 163.252 76.6752 159.753 76.5421 156.239C76.335 149.227 75.0929 142.244 72.8451 135.587C70.6121 128.915 67.4179 122.599 63.6027 116.698C59.8318 110.768 55.5137 105.193 51.2992 99.5594C49.1845 96.7425 47.1142 93.881 45.177 90.9307C44.2454 89.4332 43.3433 87.8913 42.456 86.3642C41.687 84.7778 40.785 83.2359 40.1047 81.5902C39.4245 79.9594 38.6851 78.3433 38.138 76.6532L37.2655 74.1327L36.5409 71.5678C36.0085 69.8777 35.7275 68.1134 35.3135 66.3935C35.0473 64.6441 34.6924 62.8946 34.5445 61.1303C33.7607 54.0731 33.9826 46.9269 35.1212 39.9439C35.698 36.4598 36.4374 32.9756 37.6056 29.6249C38.7443 26.2742 40.1639 23.0273 41.7018 19.8397C44.8073 13.4942 48.4303 7.43033 52.3343 1.55921L52.4378 1.57404Z" fill="white"/>
<path d="M51.9645 311.32C47.7204 305.82 43.846 300.008 40.5335 293.885C38.8772 290.816 37.3393 287.687 36.0971 284.426C34.8401 281.179 33.7754 277.813 33.3614 274.329C32.9177 270.86 32.6959 267.39 32.5628 263.891C32.4741 260.392 32.6367 256.893 33.0656 253.424C33.9677 246.485 35.9197 239.725 38.404 233.216C40.8884 226.693 43.8903 220.392 47.0401 214.179L49.4506 209.539L51.9645 204.958C53.6651 201.918 55.2622 198.849 56.8889 195.78C59.9204 189.568 62.7744 183.208 64.5342 176.506C66.3679 169.849 67.3735 162.94 67.0481 156.046C66.7524 149.167 65.1849 142.347 62.4047 136.016C59.6985 129.641 56.0164 123.755 52.4081 117.81C45.2804 105.904 37.9899 93.8655 33.6571 80.5369C31.4981 73.8947 29.9453 67.0599 29.1764 60.1213C28.4222 53.1827 28.6736 46.1106 29.9749 39.2461C31.3354 32.3965 33.7015 25.7692 36.7921 19.5274C39.8828 13.2856 43.6981 7.42929 47.883 1.88434C43.772 7.48859 40.0307 13.3894 37.0287 19.646C34.0268 25.9026 31.779 32.5299 30.5073 39.3499C29.2651 46.1699 29.0433 53.1679 29.827 60.0472C30.6256 66.9265 32.2079 73.7317 34.3669 80.2996C38.7293 93.5097 46.0346 105.46 53.2067 117.32C56.8297 123.236 60.571 129.166 63.3364 135.616C66.1904 142.021 67.8319 148.974 68.1572 155.987C68.453 163.014 67.3882 170.027 65.5102 176.758C63.6913 183.534 60.7929 189.924 57.7022 196.18C56.046 199.249 54.4341 202.348 52.7187 205.373L50.19 209.924L47.7647 214.535C44.6001 220.718 41.5834 226.974 39.0843 233.453C36.5851 239.918 34.6331 246.619 33.7015 253.483C33.2726 256.923 33.0804 260.378 33.1691 263.847C33.2874 267.301 33.5092 270.785 33.9085 274.225C34.2782 277.665 35.2838 281.001 36.4964 284.248C37.6794 287.509 39.173 290.652 40.7849 293.721C43.9938 299.919 47.7795 305.775 51.9645 311.32Z" fill="white"/>
<path d="M21.5311 310.67C19.4608 304.443 17.568 298.156 15.8821 291.826C14.2407 285.48 12.688 279.075 11.9486 272.537C11.5493 269.26 11.6528 265.939 11.8155 262.663C11.9781 259.386 12.2295 256.11 12.5549 252.833C13.2055 246.295 14.078 239.786 15.1871 233.307C17.4201 220.379 20.4072 207.51 24.9323 195.16C29.5905 182.928 31.0397 169.718 30.6109 156.671C30.389 150.148 29.7088 143.624 28.5997 137.19C27.4758 130.755 25.9822 124.365 23.7789 118.227C21.5163 112.104 18.9728 106.026 16.8581 99.7986C14.6991 93.5865 12.9541 87.2261 11.7119 80.7619C9.34587 67.8336 8.60648 54.5643 10.0261 41.4877C11.4901 28.4407 14.8322 15.5421 20.4811 3.69608C14.9948 15.6162 11.845 28.5297 10.5733 41.547C9.22757 54.5791 10.0113 67.7891 12.4365 80.6285C13.7083 87.0482 15.4681 93.3493 17.6419 99.5317C19.7713 105.729 22.3296 111.748 24.6366 117.916C26.8991 124.113 28.437 130.548 29.5905 137.012C30.7291 143.491 31.4538 150.059 31.7052 156.642C32.0896 169.778 30.5517 183.151 25.79 195.486C21.2353 207.747 18.2038 220.557 15.9117 233.441C14.7878 239.89 13.871 246.384 13.1907 252.907C12.8506 256.169 12.5844 259.431 12.407 262.693C12.2147 265.969 12.126 269.231 12.4809 272.478C13.1316 278.986 14.5808 285.406 16.1483 291.766C17.7454 298.112 19.5347 304.413 21.5311 310.67Z" fill="white"/>
<path d="M0.695008 65.3978C1.33089 72.8257 2.11464 80.2535 3.0167 87.6517C3.91876 95.05 4.92434 102.448 6.28482 109.757C7.00943 113.405 7.73403 117.067 8.75439 120.61C9.75997 124.183 10.7508 127.845 11.3423 131.537C12.614 138.92 13.2055 146.408 13.3978 153.88C13.5605 161.352 13.3534 168.839 12.5845 176.297C12.1852 180.033 11.4902 183.71 10.8099 187.372L8.69525 198.358C7.2904 205.682 5.94471 213.006 4.8652 220.39C3.75611 227.758 2.92799 235.186 2.97235 242.644C2.61744 227.684 5.30883 212.873 7.85234 198.195C9.09452 190.841 10.7212 183.532 11.5641 176.178C12.2887 168.795 12.4662 161.323 12.2739 153.895C12.1112 146.467 11.5641 139.024 10.3367 131.7C9.77476 128.023 8.81355 124.465 7.82276 120.862C6.78761 117.245 6.10737 113.568 5.42712 109.891C2.95755 95.1686 1.62665 80.2832 0.695008 65.3978Z" fill="white"/>
</g>
<defs>
<clipPath id="clip0">
<rect width="122" height="312" fill="white" transform="translate(122 312) rotate(180)"/>
</clipPath>
</defs>
</svg>
