<svg width="125" height="316" viewBox="0 0 125 316" fill="none" xmlns="http://www.w3.org/2000/svg">
<g clip-path="url(#clip0)">
<path d="M123.693 304.389C123.693 304.389 124.391 306.767 121.153 307.462C121.153 307.462 121.287 309.264 117.782 309.766C114.276 310.268 112.999 309.766 112.999 309.766C112.999 309.766 113.133 312.085 110.326 312.233C107.518 312.381 102.721 312.794 99.3494 313.075C99.3494 313.075 98.3691 314.198 95.5471 314.331C92.74 314.464 87.6009 314.405 85.2691 314.331C85.2691 314.331 85.6255 314.966 83.0857 314.966C80.5459 314.966 64.5051 315.66 54.6577 315.379C44.8104 315.099 30.8192 314.744 30.2548 313.636C30.2548 313.636 26.7347 313.563 24.9821 313.223C23.2295 312.883 16.3973 312.735 11.8227 311.613C7.24803 310.49 6.40143 309.161 6.11923 307.757C5.83702 306.354 3.37148 287.608 2.6734 271.935C1.97533 256.262 1.5446 210.499 1.69313 198.608C1.84165 186.716 0.28212 136.197 0.84652 123.463C1.41092 110.73 1.97531 99.6658 1.82679 93.5207C1.69311 87.3608 0.0296124 60.3578 0.712834 47.7574C1.39606 35.157 1.67826 18.642 3.65366 8.99597C3.65366 8.99597 4.21806 2.98383 8.86694 2.70316C13.5158 2.4225 18.6251 2.23046 22.1898 2.05319C25.7544 1.86116 39.3595 0.841888 52.207 0.841887C65.0546 0.841885 74.7237 0.280553 83.5313 0.841884C92.3538 1.40321 96.0966 0.649859 98.072 1.68389C98.072 1.68389 106.508 2.05317 108.766 2.15658C111.024 2.25998 112.331 2.43726 112.613 2.90996C112.613 2.90996 116.935 3.38266 119.371 3.92922C121.807 4.49055 121.807 5.42117 121.807 5.42117C121.807 5.42117 124.436 5.50981 124.436 8.4051C124.436 11.3004 123.218 30.6958 123.025 38.259C122.831 45.8223 123.218 67.1381 123.604 81.4225C123.975 95.6921 123.411 114.452 123.232 119.298C123.232 119.298 123.708 142.253 123.708 151.013C123.708 159.773 123.232 184.693 123.143 192.714C123.143 192.714 123.232 224.148 123.054 232.554C123.054 232.554 123.53 255.598 123.336 267.637C123.143 279.676 122.772 284.344 122.772 289.662C122.772 294.98 123.693 304.389 123.693 304.389Z" stroke="white" stroke-width="0.75" stroke-miterlimit="10"/>
<path d="M121.821 5.37688C122.148 7.82901 121.703 10.3255 121.064 12.689C120.455 15.0672 119.861 17.4603 119.326 19.8533C118.212 24.6394 117.321 29.4698 116.712 34.3298C115.554 44.0497 115.153 53.9173 115.984 63.6667C116.786 73.4309 118.554 83.1213 119.935 92.8707C121.331 102.605 122.727 112.37 123.292 122.193C122.846 117.289 122.148 112.429 121.391 107.569C120.663 102.709 119.891 97.8488 119.089 93.0036C117.544 83.2985 115.762 73.6082 114.87 63.7701C114.469 58.8511 114.41 53.9025 114.588 48.9687C114.796 44.0496 115.108 39.1158 115.866 34.2263C116.578 29.3369 117.574 24.5065 118.806 19.7351C119.43 17.3569 120.113 14.9786 120.811 12.6299C121.524 10.2812 122.059 7.84378 121.821 5.37688Z" fill="white"/>
<path d="M112.628 2.86578C113.341 3.9589 113.519 5.49516 112.851 6.70645C112.242 7.85866 111.811 9.11428 111.35 10.3403C110.415 12.8072 109.538 15.2889 108.662 17.7706C107.786 20.2523 106.939 22.7339 105.885 25.2156C105.602 25.836 105.261 26.4712 104.741 27.0326C104.206 27.5791 103.464 27.9632 102.721 28.0666C101.964 28.1848 101.28 28.1257 100.612 28.0814C99.9436 28.037 99.2604 27.978 98.592 27.8746C97.2553 27.6677 95.9037 27.3428 94.6412 26.7519C93.3936 26.1758 92.1014 25.2452 91.5964 23.7975C91.0468 22.3647 91.4182 20.8579 91.7746 19.6171C92.1311 18.3319 92.5915 17.0763 93.0817 15.8502C95.1016 10.9608 97.2998 6.11558 100.285 1.7431C98.9336 4.0032 97.8791 6.42579 96.8245 8.83361C95.77 11.2414 94.76 13.6788 93.8837 16.1457C93.453 17.3865 93.052 18.6274 92.7103 19.8682C92.3687 21.1386 92.1311 22.3499 92.547 23.4282C92.9331 24.5213 93.9728 25.2747 95.1016 25.7769C96.2453 26.294 97.5078 26.5746 98.7702 26.7667C99.4089 26.8701 100.048 26.9439 100.701 26.9883C101.355 27.0326 102.008 27.0916 102.558 27.003C103.716 26.8701 104.474 25.9542 104.979 24.7872C106.033 22.4237 106.88 19.9125 107.875 17.4752C108.84 15.023 109.821 12.5709 110.86 10.1335C111.41 8.93702 111.915 7.71095 112.613 6.55875C113.266 5.4804 113.237 4.03276 112.628 2.86578Z" fill="white"/>
<path d="M98.087 1.65448C98.6068 2.76237 98.1018 4.01797 97.582 5.02246L95.9927 8.16888C94.9382 10.2665 93.8985 12.3641 92.9034 14.4912C91.9083 16.6036 90.9131 18.7308 90.1705 20.9318C89.4279 23.1476 88.8189 25.3929 88.2397 27.6677C87.1257 32.2175 86.0563 36.7525 85.4028 41.4056C85.1949 42.5726 84.9572 43.7395 84.5414 44.9065C84.1255 46.0144 83.5314 47.3439 82.1204 47.9052C81.4074 48.1563 80.8133 48.1416 80.2044 48.1859C79.5954 48.2154 79.0013 48.2007 78.4072 48.2007C77.219 48.1711 76.0308 48.112 74.8426 48.0234C73.6544 47.92 72.481 47.8018 71.2928 47.6098C70.1343 47.4325 68.753 47.0928 67.8024 46.0883C66.837 45.0838 66.5696 43.6952 66.5696 42.4839C66.5548 41.2431 66.8073 40.0318 67.0746 38.8944C68.2034 34.3003 69.5996 29.8097 71.2185 25.3929C72.8672 20.9909 74.6346 16.5889 77.0853 12.5561C79.5657 8.58249 81.8679 4.4316 85.0612 0.945436C82.0164 4.54977 79.8776 8.75976 77.5606 12.8368C75.2287 16.8843 73.5652 21.2863 72.0206 25.6883C70.5353 30.1199 69.1094 34.5958 68.0549 39.1307C67.7876 40.2682 67.5796 41.376 67.5945 42.4839C67.6093 43.5771 67.8618 44.6702 68.5599 45.3792C69.258 46.1031 70.3125 46.4133 71.4413 46.561C72.585 46.7382 73.7435 46.8416 74.9168 46.945C76.0753 47.0484 77.2487 47.1223 78.4221 47.1518C79.0013 47.1666 79.5806 47.1814 80.1598 47.1518C80.7242 47.1223 81.3332 47.1223 81.7342 46.9598C82.6105 46.6496 83.1749 45.6304 83.5462 44.5963C83.9324 43.5475 84.17 42.4101 84.378 41.2726C85.076 36.6343 86.1454 32.0255 87.3782 27.4905C88.002 25.2156 88.6704 22.9703 89.4724 20.7397C90.2893 18.5092 91.329 16.3968 92.3836 14.2844C93.4678 12.1868 94.5817 10.1335 95.7254 8.08025L97.4335 5.0077C98.0127 3.97367 98.5474 2.77714 98.087 1.65448Z" fill="white"/>
<path d="M107.726 19.0263C106.954 23.576 106.271 28.1405 105.706 32.7198C105.112 37.2843 104.637 41.8636 104.592 46.4724C104.533 51.0665 104.592 55.6753 104.83 60.2693C105.083 64.8634 105.409 69.4575 106.271 73.9481C107.934 82.9885 110.281 91.9255 112.553 100.862C113.697 105.324 114.871 109.799 115.851 114.32C116.831 118.84 117.455 123.419 118.153 127.984C116.579 118.884 114.276 109.962 111.722 101.084C109.286 92.1766 106.939 83.2396 105.187 74.1401C104.355 69.5609 104.058 64.9225 103.835 60.3137C103.642 55.6901 103.553 51.0665 103.746 46.4429C104.087 37.1661 105.9 28.0667 107.726 19.0263Z" fill="white"/>
<path d="M123.158 190.38C122.074 200.203 121.287 210.056 119.772 219.865C118.123 229.614 115.673 239.245 114.871 249.039C114.573 253.943 114.38 258.892 114.38 263.811C114.38 268.745 114.648 273.664 115.123 278.568C115.598 283.472 116.207 288.377 117.336 293.177C117.886 295.585 118.584 297.949 119.371 300.283C120.158 302.617 120.901 305.01 121.168 307.477C120.812 305.024 119.995 302.69 119.118 300.371C118.257 298.052 117.455 295.703 116.816 293.296C115.583 288.48 114.871 283.561 114.291 278.657C113.103 268.804 113.252 258.848 113.786 248.965C114.202 244.002 115.093 239.112 116.029 234.252L118.955 219.717C119.92 214.886 120.396 209.953 121.094 205.063L123.158 190.38Z" fill="white"/>
<path d="M99.3495 313.075C99.8693 312.809 100.152 312.233 100.196 311.672C100.241 311.111 100.107 310.534 99.899 310.017C99.4831 308.954 98.8148 308.023 98.2058 307.048C96.9582 305.113 95.7254 303.178 94.5372 301.213C92.1905 297.255 89.9923 293.177 88.3585 288.849C86.6653 284.506 86.0712 279.853 85.3731 275.348C85.18 274.225 85.0166 273.088 84.7196 272.024C84.4374 270.961 84.0512 269.897 83.3531 269.217C83.0264 268.863 82.5808 268.686 82.1204 268.553L81.3777 268.479L80.5014 268.479C79.3429 268.464 78.1993 268.449 77.0556 268.494C75.9268 268.523 74.798 268.582 73.7138 268.804C72.6444 269.025 71.5898 269.41 70.9512 270.133C70.268 270.857 70.1194 271.862 70.1937 272.955C70.2531 274.077 70.3868 275.215 70.5205 276.352C71.1146 280.873 71.976 285.393 73.1494 289.78C74.5752 294.064 76.5803 298.259 78.526 302.38C80.5163 306.502 82.566 310.638 85.2543 314.36C82.4174 310.741 80.1895 306.664 78.0359 302.617C76.9814 300.578 75.9714 298.51 74.9911 296.427C74.0405 294.33 73.0603 292.262 72.3176 290.031C70.9957 285.585 70.164 281.065 69.5105 276.485C69.3619 275.348 69.2283 274.196 69.154 273.029C69.05 271.876 69.2283 270.414 70.164 269.424C71.07 268.42 72.3325 268.006 73.491 267.755C74.6792 267.504 75.8526 267.43 77.0259 267.386C78.1993 267.356 79.3578 267.386 80.5014 267.401L81.3629 267.415L82.3283 267.519C82.967 267.696 83.6205 267.991 84.0809 268.479C85.0315 269.439 85.4028 270.65 85.6999 271.788C85.9969 272.94 86.1603 274.077 86.3385 275.215C86.9772 279.765 87.5862 284.3 89.116 288.583C90.6161 292.882 92.7252 296.974 94.9531 300.977C96.067 302.986 97.2255 304.965 98.384 306.945C98.9484 307.949 99.5871 308.91 99.9733 310.017C100.166 310.564 100.285 311.155 100.211 311.731C100.196 312.248 99.8842 312.824 99.3495 313.075Z" fill="white"/>
<path d="M101.83 251.683C101.785 250.708 101.652 249.733 101.34 248.803C101.043 247.887 100.538 246.971 99.7059 246.454C98.8742 245.922 97.8196 245.996 96.8691 245.981C95.8888 246.011 94.9085 246.144 93.9728 246.425C92.1014 246.927 90.423 248.389 90.2002 250.324C89.9774 252.245 89.9477 254.209 89.9032 256.159C89.8586 260.074 89.9477 263.988 90.1111 267.888C90.2596 271.788 90.5864 275.688 91.2102 279.514C91.537 281.375 91.8934 283.413 92.948 284.743C93.2302 285.023 93.5421 285.275 93.9134 285.304C94.0916 285.348 94.2699 285.319 94.4926 285.319L95.2056 285.216C96.1561 285.068 97.0919 284.846 97.9682 284.521C99.7208 283.886 101.295 282.675 101.874 280.902C102.201 280.031 102.246 279.1 102.231 278.125L102.201 275.185L102.068 263.427L101.83 251.683ZM101.83 251.683L102.246 263.427L102.766 275.171L102.899 278.11C102.944 279.085 102.944 280.149 102.617 281.138C102.038 283.177 100.241 284.699 98.3395 285.408C97.3889 285.792 96.3938 286.028 95.3987 286.205L94.656 286.323C94.3887 286.338 94.0619 286.368 93.7649 286.309C93.1411 286.235 92.6212 285.836 92.2202 285.437C91.4627 284.58 91.1062 283.591 90.8092 282.616C90.5121 281.641 90.319 280.666 90.1557 279.691C88.9823 271.862 89.0566 263.974 89.3833 256.144C89.4873 254.18 89.5913 252.23 89.8883 250.265C90.0517 249.261 90.5715 248.33 91.329 247.651C92.0717 246.971 93.0074 246.543 93.9579 246.262C94.9085 245.996 95.9036 245.863 96.8988 245.863C97.8642 245.893 98.9336 245.819 99.795 246.38C100.642 246.942 101.132 247.857 101.429 248.788C101.681 249.719 101.815 250.708 101.83 251.683Z" fill="white"/>
<path d="M111.588 208.579C111.172 207.693 110.727 206.806 110.281 205.95C110.058 205.521 109.821 205.078 109.568 204.664C109.316 204.251 109.078 203.808 108.662 203.542C107.86 202.995 106.88 202.626 105.914 202.788C104.934 202.936 104.236 203.749 103.894 204.635C102.573 208.313 101.31 212.036 100.062 215.758C98.8296 219.481 97.6414 223.218 96.5275 226.97C95.4284 230.707 94.3293 234.504 94.0025 238.315C93.9431 239.245 93.9283 240.22 94.1807 241.018C94.4184 241.845 95.0274 242.244 95.9482 242.377C97.7157 242.613 99.7356 242.2 101.369 241.373C102.171 240.944 102.944 240.383 103.375 239.629C103.79 238.92 103.969 237.901 104.266 236.971L105.914 231.313L109.197 219.983C109.702 218.092 110.281 216.216 110.831 214.325C111.098 213.38 111.35 212.434 111.544 211.474C111.692 210.529 111.915 209.524 111.588 208.579ZM111.588 208.579C111.93 209.51 111.722 210.529 111.573 211.489C111.395 212.449 111.157 213.409 110.905 214.355C110.385 216.246 109.835 218.136 109.345 220.027L106.464 231.431L105.023 237.133L104.667 238.551C104.548 238.994 104.414 239.6 104.132 240.058C103.612 241.033 102.736 241.712 101.815 242.215C99.9584 243.16 97.9236 243.633 95.7848 243.396C95.265 243.322 94.6857 243.175 94.1807 242.805C93.6758 242.451 93.3193 241.904 93.1559 241.373C92.7995 240.294 92.8292 239.26 92.8737 238.241C93.2747 234.223 94.4332 230.456 95.6066 226.689C96.8097 222.937 98.1613 219.259 99.5277 215.566C100.894 211.888 102.305 208.224 103.731 204.561C103.909 204.103 104.191 203.675 104.548 203.305C104.919 202.966 105.38 202.729 105.885 202.641C106.895 202.493 107.89 202.892 108.692 203.453C109.108 203.734 109.36 204.192 109.598 204.605C109.835 205.034 110.073 205.462 110.296 205.905C110.756 206.806 111.187 207.693 111.588 208.579Z" fill="white"/>
<path d="M109.627 197.293C108.781 197.574 107.637 197.352 107.281 196.436C106.909 195.58 107.028 194.634 107.132 193.748C107.355 191.946 107.697 190.173 108.009 188.386C108.632 184.811 109.152 181.236 109.42 177.632C109.687 174.013 110.162 170.408 110.311 166.834C110.385 165.046 110.311 163.185 110.89 161.309C111.053 160.836 111.276 160.364 111.633 159.95C111.974 159.522 112.509 159.211 112.984 159.064C113.964 158.694 115.138 158.783 116.059 159.285C116.98 159.758 117.663 160.556 118.212 161.265C118.777 161.974 119.356 162.742 119.802 163.599C120.722 165.327 120.841 167.351 120.633 169.168C120.277 172.787 119.757 176.376 119.237 179.966C118.673 183.541 118.212 187.145 117.247 190.661C116.757 192.404 115.955 194.132 114.588 195.358C113.266 196.599 111.425 197.146 109.627 197.293ZM109.627 197.293C111.425 197.116 113.252 196.54 114.573 195.269C115.895 194.029 116.653 192.315 117.128 190.587C117.99 187.086 118.287 183.452 118.717 179.862C119.103 176.273 119.46 172.654 119.712 169.064C119.876 167.292 119.727 165.548 118.91 164.057C118.509 163.303 117.975 162.609 117.395 161.915C116.831 161.206 116.267 160.615 115.569 160.245C114.885 159.876 114.098 159.802 113.356 160.053C112.598 160.26 112.167 160.836 111.885 161.634C111.35 163.229 111.38 165.046 111.276 166.878C111.009 170.541 110.385 174.087 109.984 177.691C109.583 181.295 108.9 184.87 108.172 188.415C107.83 190.188 107.474 191.975 107.221 193.763C107.103 194.649 106.969 195.58 107.325 196.422C107.652 197.308 108.766 197.559 109.627 197.293Z" fill="white"/>
<path d="M120.262 144.956C119.935 141.382 119.534 137.821 119.014 134.276C118.747 132.504 118.435 130.746 118.049 128.988C117.663 127.245 117.262 125.487 116.608 123.847C116.267 123.05 115.851 122.281 115.361 121.528C114.885 120.775 114.395 120.036 113.831 119.386C113.251 118.751 112.613 118.19 111.84 117.953C111.083 117.687 110.222 117.702 109.36 117.776C107.697 117.953 105.602 118.293 105.632 119.874C105.573 120.642 105.825 121.469 106.093 122.311C106.375 123.183 106.612 124.039 106.85 124.911C108.617 131.883 110.222 138.9 110.905 146.079C111.053 147.881 111.053 149.669 111.425 151.397C111.618 152.224 111.9 153.184 112.702 153.494C113.504 153.76 114.44 153.494 115.286 153.288C117.009 152.844 118.628 151.781 119.43 150.171C120.292 148.59 120.41 146.729 120.262 144.956ZM120.262 144.956C120.44 146.729 120.351 148.605 119.519 150.215C118.717 151.855 117.083 152.977 115.346 153.45C114.469 153.642 113.578 153.997 112.628 153.731C111.647 153.376 111.336 152.327 111.098 151.485C110.637 149.728 110.563 147.896 110.355 146.138C109.91 142.593 109.137 139.092 108.365 135.606C107.593 132.12 106.731 128.633 105.781 125.192C105.558 124.335 105.32 123.463 105.068 122.621C104.815 121.764 104.518 120.834 104.607 119.785C104.637 119.268 104.815 118.707 105.187 118.264C105.558 117.82 106.033 117.554 106.494 117.377C107.429 117.023 108.35 116.919 109.271 116.831C110.192 116.757 111.187 116.772 112.138 117.141C113.088 117.481 113.831 118.175 114.41 118.899C115.004 119.623 115.479 120.405 115.925 121.188C116.385 121.971 116.786 122.784 117.128 123.655C118.272 127.127 118.688 130.701 119.178 134.247C119.638 137.807 119.995 141.382 120.262 144.956Z" fill="white"/>
<path d="M108.395 109.504C109.924 108.322 110.712 106.387 110.712 104.496C110.741 102.576 109.984 100.774 109.523 98.9272L106.315 87.937L104.696 82.4418C104.087 80.5953 103.79 78.675 103.137 76.9762C102.81 76.1342 102.335 75.3809 101.652 74.8638C100.983 74.332 100.137 74.0662 99.2306 73.9037C97.4185 73.5935 95.5026 73.5787 93.7796 74.0662C92.9479 74.3173 92.1013 74.7013 91.7894 75.3513C91.5814 75.6467 91.5963 76.0308 91.626 76.4001C91.6706 76.5922 91.7448 76.7842 91.7894 76.9762L92.0419 77.6557C92.7103 79.4579 93.3192 81.2601 93.943 83.077L97.4631 93.9787C98.6365 97.6125 99.7653 101.261 101.043 104.851C101.726 106.623 102.171 108.529 103.345 110.05C103.909 110.833 104.964 111.129 105.885 110.833C106.835 110.612 107.622 110.05 108.395 109.504ZM108.395 109.504C107.622 110.065 106.835 110.641 105.914 110.922C104.993 111.232 103.894 110.937 103.3 110.139C102.097 108.618 101.622 106.697 100.909 104.939C99.5425 101.365 98.2652 97.775 96.9581 94.1855L93.0667 83.4168C92.4281 81.6294 91.7894 79.8124 91.1062 78.0546L90.8388 77.4046C90.7646 77.1387 90.6606 76.8876 90.6012 76.6069C90.5269 76.0456 90.5269 75.4104 90.8537 74.8786C91.4329 73.7707 92.532 73.3423 93.4826 73.0321C95.4728 72.4856 97.4928 72.5594 99.4385 72.914C100.404 73.0912 101.444 73.431 102.275 74.1105C103.122 74.7752 103.686 75.7058 104.028 76.6512C104.711 78.542 104.889 80.4328 105.424 82.235L106.835 87.7892L109.672 98.8829C110.103 100.729 110.845 102.546 110.786 104.481C110.771 106.402 109.954 108.352 108.395 109.504Z" fill="white"/>
<path d="M95.2649 70.122C93.3192 70.5504 91.0171 70.0039 89.8289 68.2903C88.6258 66.6063 88.4773 64.4792 88.3139 62.5145C88.0465 58.4966 88.1654 54.4639 88.3287 50.4459C88.5218 46.428 88.7892 42.41 89.2199 38.4069C89.4872 36.4274 89.5764 34.3446 90.5269 32.3799C90.9874 31.4198 91.73 30.4744 92.7845 29.9721C93.8094 29.4403 95.0124 29.4403 95.9778 29.4551C97.1215 29.4847 98.1315 29.7801 99.1118 30.1937C100.092 30.6221 101.043 31.1686 101.785 32.0106C102.528 32.8379 102.988 33.9753 102.959 35.0979C102.929 36.132 102.84 37.1365 102.751 38.1409C102.379 42.1441 101.934 46.1325 101.666 50.1357C101.399 54.1389 101.221 58.1568 101.562 62.16C101.637 63.1645 101.681 64.169 101.607 65.1735C101.518 66.1632 101.355 67.212 100.775 68.054C100.226 68.9403 99.186 69.3391 98.2206 69.5607C97.2552 69.797 96.2601 69.9005 95.2649 70.122ZM95.2649 70.122C96.2452 69.8857 97.2552 69.7675 98.2355 69.5311C99.2009 69.2948 100.211 68.896 100.731 68.0244C101.28 67.1824 101.429 66.1632 101.503 65.1735C101.562 64.169 101.518 63.1793 101.429 62.1748C100.983 58.1716 100.998 54.1389 101.132 50.1062C101.265 46.0882 101.548 42.0703 101.815 38.0671C101.874 37.0774 101.963 36.0581 101.978 35.0979C101.978 34.1969 101.637 33.3696 101.028 32.7049C99.795 31.405 97.775 30.6664 95.9778 30.5778C94.953 30.5482 94.047 30.5482 93.2598 30.9471C92.4578 31.3016 91.8785 32.0254 91.4478 32.8526C90.5863 34.5219 90.4378 36.5604 90.1556 38.5398C89.6358 42.5134 89.205 46.5018 88.8783 50.505C88.5812 54.5082 88.299 58.5114 88.4624 62.5293C88.5961 64.5087 88.7149 66.6063 89.8734 68.2756C91.0468 69.9448 93.3192 70.5356 95.2649 70.122Z" fill="white"/>
<path d="M83.8283 58.8364C83.7541 56.6944 83.4125 54.4196 82.1351 52.6469C81.5113 51.7459 80.4865 51.1993 79.4022 51.1402C78.318 51.0368 77.2189 50.963 76.1347 50.9482C75.0504 50.9186 73.9513 50.9925 72.8819 51.155C71.8125 51.3027 70.7431 51.5686 69.7926 52.0413C68.842 52.4992 68.0103 53.2378 67.6389 54.198C67.2379 55.1582 67.2825 56.207 67.4607 57.2853C68.0845 61.5692 68.9905 65.8382 69.9857 70.0482C70.9956 74.2582 72.0799 78.483 73.6691 82.4714C74.486 84.436 75.4217 86.4155 76.7288 88.0256C77.3971 88.8085 78.1695 89.5028 79.0903 89.8721C79.9964 90.2561 81.1252 90.4186 82.1648 90.6107C83.2194 90.7732 84.2888 90.8913 85.3285 90.8323C86.3681 90.7879 87.4227 90.5959 88.2396 90.0493C89.0713 89.5323 89.5169 88.5869 89.5021 87.5529C89.4872 86.5484 89.2496 85.4553 89.0268 84.4065C87.1256 75.9422 84.6155 67.5222 83.8283 58.8364ZM83.8283 58.8364C84.2888 63.1645 85.1354 67.4336 86.1751 71.6583C87.2147 75.8831 88.5218 80.034 89.5763 84.2735C89.8288 85.3371 90.111 86.3859 90.1704 87.5529C90.2447 88.7051 89.71 89.9903 88.6852 90.6698C87.69 91.364 86.5018 91.6004 85.3879 91.689C84.2591 91.7776 83.1303 91.7038 82.0163 91.5265C80.9172 91.3197 79.8478 91.2016 78.719 90.7584C77.6051 90.33 76.6842 89.5176 75.9416 88.6608C74.4712 86.9029 73.5057 84.8939 72.6443 82.8554C69.6143 74.5684 68.0251 65.9712 66.9112 57.3149C66.7626 56.2513 66.7329 55.0252 67.2231 53.9912C67.6835 52.9276 68.6341 52.1595 69.644 51.7015C71.7086 50.7857 73.9662 50.7414 76.1495 50.7709C77.2486 50.8004 78.3329 50.8743 79.432 50.9925C80.5459 51.0811 81.6004 51.6572 82.2243 52.5731C83.457 54.4196 83.7838 56.6944 83.8283 58.8364Z" fill="white"/>
<path d="M94.9827 100.449C93.943 98.5874 92.6806 96.8 90.9725 95.5001C90.1259 94.8501 89.1159 94.4365 88.0465 94.3627C86.9772 94.2593 85.9078 94.2445 84.8532 94.3774C83.8135 94.5251 82.7144 94.791 81.9421 95.4853C81.1103 96.1648 81.1252 97.3466 81.5559 98.2772C82.4174 100.227 83.4274 102.103 84.4225 104.009C86.4127 107.805 88.4476 111.572 90.2002 115.501C91.8934 119.475 93.3044 123.508 94.6114 127.599C94.9233 128.633 95.2204 129.653 95.5026 130.701C95.7551 131.809 95.9036 132.784 96.3937 133.612C96.869 134.409 97.6711 134.926 98.6365 135C99.5871 135.089 100.656 134.911 101.637 134.66C102.617 134.394 103.553 133.951 104.206 133.257C104.889 132.577 105.231 131.603 105.261 130.613C105.365 128.589 104.459 126.565 103.865 124.512C102.572 120.435 101.251 116.373 99.7801 112.355C98.3097 108.337 96.7205 104.363 94.9827 100.449ZM94.9827 100.449C96.7651 104.348 98.3988 108.293 99.9287 112.296C101.488 116.284 102.973 120.302 104.384 124.335L105.439 127.363C105.795 128.397 106.033 129.49 106.018 130.628C106.003 131.75 105.647 132.962 104.83 133.833C104.043 134.719 102.959 135.266 101.874 135.576C100.775 135.872 99.7059 136.078 98.5028 135.99C97.3146 135.945 96.0818 135.192 95.4729 134.143C94.8491 133.109 94.6708 131.928 94.4332 130.967C94.151 129.948 93.8391 128.929 93.5272 127.91C92.2795 123.847 90.9131 119.77 89.309 115.856C87.6752 111.926 85.7741 108.086 83.9026 104.245C82.9669 102.31 82.0164 100.404 81.2143 98.3954C80.7836 97.4204 80.7984 96.0023 81.749 95.2933C82.6105 94.5547 83.7393 94.3627 84.7938 94.2149C85.8632 94.0968 86.9623 94.1115 88.0317 94.2297C89.1159 94.3183 90.1556 94.7615 91.0022 95.4262C92.7251 96.7705 93.9728 98.5874 94.9827 100.449Z" fill="white"/>
<path d="M108.588 142.903C108.528 141.884 108.306 140.865 107.83 139.963C107.37 139.062 106.538 138.324 105.543 138.087C103.538 137.748 101.459 137.615 99.4386 137.807C98.4434 137.94 97.3741 138.132 96.6611 138.826C95.8442 139.506 96.2304 140.613 96.3641 141.603L97.3295 147.66C97.9088 151.707 98.5771 155.74 98.6514 159.891C98.6217 163.997 98.5771 168.06 98.1167 172.196C97.9385 173.2 97.8642 174.146 97.9533 175.106C98.0424 176.036 98.3395 177.026 98.9633 177.351C99.1118 177.425 99.29 177.469 99.4683 177.484L100.241 177.499L101.77 177.543C102.78 177.543 103.776 177.514 104.741 177.336C105.662 177.13 106.627 176.819 107.103 176.125C107.37 175.815 107.444 175.372 107.593 174.855L107.934 173.377C108.35 171.398 108.662 169.374 108.885 167.365C109.36 163.318 109.42 159.241 109.167 155.164L108.588 142.903ZM108.588 142.903L109.33 155.134C109.672 159.196 109.791 163.303 109.434 167.395C109.271 169.433 109.033 171.472 108.677 173.496L108.38 175.017C108.276 175.49 108.187 176.095 107.815 176.598C107.117 177.632 105.944 178.016 104.919 178.252C103.865 178.459 102.795 178.518 101.756 178.518L100.211 178.503L99.4386 178.489C99.1118 178.474 98.7702 178.415 98.4732 178.252C97.8493 177.927 97.4929 177.366 97.2701 176.834C97.0473 176.288 96.9285 175.741 96.8691 175.209C96.7502 174.146 96.8245 173.038 97.0027 172.018C97.5077 168.045 97.6117 163.923 97.686 159.876C97.7157 155.843 97.2255 151.781 96.7651 147.733L96.0076 141.662C95.963 141.145 95.8442 140.673 95.8442 140.126C95.8145 139.579 96.0522 139.018 96.468 138.678C97.2849 137.94 98.384 137.807 99.394 137.674C101.459 137.497 103.523 137.659 105.543 138.028C106.553 138.279 107.385 139.048 107.845 139.963C108.335 140.85 108.543 141.884 108.588 142.903Z" fill="white"/>
<path d="M105.959 185.535C105.959 184.501 105.781 183.437 105.291 182.521C105.038 182.063 104.696 181.665 104.266 181.384C103.82 181.103 103.315 180.97 102.795 180.926C100.746 180.823 98.5177 181.074 96.8691 182.344C95.1016 183.6 95.0125 185.919 94.3441 187.854L92.547 193.837C91.3142 197.825 90.0814 201.799 88.7447 205.757C87.4674 209.716 85.6108 213.572 85.1355 217.56C85.0315 218.52 85.0909 219.554 85.6256 220.071C86.0861 220.559 87.3188 220.618 88.2843 220.81C90.2894 221.091 92.4281 221.179 94.1362 220.323C94.9828 219.865 95.5026 219.17 95.8888 218.195L97.1364 215.33C97.9533 213.409 98.7405 211.489 99.5129 209.554C102.469 201.813 105.335 193.866 105.959 185.535ZM105.959 185.535C105.736 189.7 104.845 193.792 103.761 197.81C102.676 201.843 101.414 205.817 100.018 209.746C99.3198 211.711 98.592 213.66 97.8345 215.61L96.676 218.52C96.3493 219.495 95.6215 220.618 94.5818 221.15C92.5024 222.213 90.2151 222.066 88.1209 221.829C87.5862 221.755 87.0663 221.682 86.5465 221.578C86.0861 221.519 85.3286 221.297 84.8533 220.84C83.8879 219.806 83.9324 218.506 84.0067 217.457C84.6008 213.129 86.5168 209.377 87.8387 205.447C89.2645 201.533 90.6607 197.618 92.0123 193.674L94.0025 187.751L94.9531 184.767C95.2799 183.747 95.9185 182.846 96.7651 182.211C98.488 180.926 100.731 180.704 102.795 180.837C103.315 180.896 103.835 181.029 104.281 181.325C104.711 181.62 105.068 182.034 105.305 182.492C105.81 183.437 105.974 184.501 105.959 185.535Z" fill="white"/>
<path d="M92.0865 232.554C92.2647 231.475 92.3389 230.367 92.2647 229.274C92.1904 228.181 91.9676 227.073 91.3587 226.172C91.0765 225.699 90.6309 225.36 90.1705 225.094C89.6655 224.872 89.1308 224.754 88.5961 224.665C87.5118 224.488 86.4127 224.459 85.3136 224.562C83.1452 224.784 80.9767 225.611 79.4914 227.191C78.7488 227.974 78.2586 228.934 77.8873 229.954L76.8179 233.056C75.4218 237.222 74.1296 241.417 72.9265 245.627C72.3027 247.724 71.7235 249.837 71.2036 251.964C70.6838 254.106 70.2382 256.189 70.1045 258.36C70.0154 259.438 69.9263 260.532 69.9708 261.58C70.0006 262.629 70.2233 263.619 70.9808 264.018C71.7532 264.446 72.9265 264.505 73.9811 264.623C75.0653 264.712 76.1496 264.756 77.2338 264.742C79.3726 264.668 81.6302 264.549 83.5016 263.604C83.7393 263.486 83.9323 263.338 84.1403 263.205C84.3334 263.058 84.4967 262.865 84.675 262.703C84.7938 262.496 84.9423 262.304 85.0463 262.068C85.1354 261.817 85.2542 261.58 85.3285 261.329C85.6553 260.31 85.878 259.246 86.0711 258.168C86.8286 253.869 87.2296 249.453 88.507 245.213C89.8437 241.047 90.8982 236.793 92.0865 232.554ZM92.0865 232.554C90.9577 236.793 89.9477 241.077 88.6703 245.272C87.497 249.512 87.2593 253.914 86.6355 258.271C86.4721 259.365 86.2791 260.458 85.9672 261.536C85.8186 262.068 85.6107 262.614 85.2542 263.146C85.0463 263.368 84.8532 263.604 84.6156 263.796C84.3779 263.959 84.1403 264.165 83.8729 264.298C82.8481 264.874 81.7193 265.17 80.6202 265.377C79.5063 265.569 78.3775 265.687 77.2635 265.716C76.1496 265.746 75.0207 265.716 73.9068 265.643C72.7928 265.51 71.664 265.539 70.4758 264.948C69.8817 264.638 69.4213 264.032 69.2134 263.427C69.0054 262.821 68.9312 262.23 68.9015 261.654C68.842 260.502 68.9163 259.394 69.0054 258.286C69.1539 256.07 69.6589 253.855 70.2085 251.727C70.758 249.586 71.367 247.473 72.0205 245.376C73.3424 241.18 74.7831 237.015 76.2981 232.893L77.4714 229.806C77.8725 228.772 78.4369 227.753 79.2389 226.955C80.843 225.33 83.1006 224.592 85.2988 224.4C86.3979 224.311 87.5267 224.355 88.6109 224.547C89.1605 224.636 89.6952 224.769 90.215 225.005C90.7052 225.286 91.1507 225.64 91.4329 226.128C92.0419 227.058 92.2647 228.181 92.3092 229.274C92.3538 230.367 92.2795 231.475 92.0865 232.554Z" fill="white"/>
<path d="M119.148 150.791C119.757 152.786 119.906 154.854 119.906 156.907C119.861 158.96 119.623 161.028 118.881 162.993C118.747 160.91 118.777 158.916 118.792 156.892C118.821 154.868 118.866 152.845 119.148 150.791Z" fill="white"/>
<path d="M117.217 190.557C116.4 195.565 115.554 200.572 114.529 205.536C114.039 208.018 113.4 210.514 112.747 212.937C112.108 215.389 111.499 217.856 110.92 220.322C109.761 225.256 108.677 230.22 107.652 235.183C106.583 240.146 105.84 245.124 105.365 250.162C104.889 255.199 104.607 260.251 104.637 265.303C104.607 270.355 105.201 275.363 105.989 280.355C106.776 285.348 107.756 290.312 109.004 295.216C109.627 297.668 110.326 300.076 111.261 302.41C111.737 303.592 112.256 304.714 112.776 305.896C113.296 307.033 113.771 308.466 113.474 309.855L113.148 311.376L112.568 309.958L107.162 296.841C106.241 294.669 105.662 292.35 104.414 290.43C103.805 289.484 102.973 288.657 101.919 288.465C100.894 288.273 99.6762 288.583 98.6068 288.938C97.5374 289.337 96.4977 289.898 95.7551 290.725C94.9827 291.523 94.6114 292.646 94.8639 293.739C95.5026 295.925 96.6314 298.067 97.6414 300.179C99.7504 304.404 101.919 308.599 104.295 312.676C101.815 308.644 99.5425 304.507 97.3295 300.342C96.2601 298.229 95.1016 296.191 94.3589 293.857C94.0173 292.616 94.4629 291.242 95.3243 290.341C96.1561 289.411 97.27 288.79 98.3988 288.347C99.5573 287.963 100.731 287.608 102.053 287.8C103.374 288.037 104.355 289.026 105.023 290.031C106.375 292.084 106.984 294.418 107.934 296.56L113.445 309.574L112.524 309.678C112.761 308.555 112.39 307.432 111.87 306.28C111.365 305.143 110.816 303.976 110.34 302.779C109.375 300.401 108.647 297.934 108.009 295.467C106.731 290.533 105.721 285.54 104.904 280.518C104.102 275.495 103.553 270.399 103.597 265.288C103.597 260.192 103.894 255.11 104.399 250.044C104.889 244.992 105.647 239.925 106.82 234.976C107.919 230.013 109.063 225.079 110.296 220.145C110.905 217.678 111.543 215.226 112.227 212.774C112.954 210.337 113.623 207.914 114.187 205.432C115.301 200.528 116.267 195.535 117.217 190.557Z" fill="white"/>
<path d="M81.853 0.901154C82.2243 0.989786 82.4471 1.37384 82.4323 1.74314C82.4174 2.11244 82.2986 2.46696 82.1352 2.80672C81.8085 3.47145 81.3777 4.04756 80.9619 4.6532L78.4072 8.16892C76.6843 10.4881 74.9614 12.8073 73.387 15.2151C72.5998 16.4264 71.8869 17.6377 71.2928 18.9229C70.6838 20.208 70.2531 21.567 69.6144 22.926C69.2877 23.6056 68.8867 24.285 68.2925 24.8464C67.7133 25.4225 66.9855 25.8065 66.2577 26.0724C64.8467 26.5599 63.406 26.9144 61.9356 27.136C60.4652 27.3281 58.9651 27.4462 57.4055 27.1065C57.0194 27.0031 56.6184 26.8849 56.247 26.619C55.8757 26.3827 55.6084 26.1168 55.341 25.8213C54.7915 25.2304 54.3905 24.5214 54.1677 23.7533C53.7072 22.217 53.9746 20.6216 54.435 19.2035C54.9252 17.7559 55.6529 16.5003 56.3659 15.2446C59.3215 10.2517 62.5 5.40658 66.1538 0.901155C64.4903 3.26466 62.9604 5.71678 61.4603 8.18369C59.9454 10.6358 58.4749 13.1175 57.1233 15.6583C56.4698 16.9286 55.7718 18.2138 55.3559 19.5137C54.9251 20.8284 54.7469 22.2318 55.1331 23.4726C55.3262 24.093 55.6529 24.6543 56.0985 25.127C56.3064 25.3634 56.5738 25.5997 56.8263 25.7475C57.0491 25.8952 57.361 25.9986 57.658 26.0724C58.9502 26.3531 60.3909 26.2349 61.7722 26.0429C63.1684 25.8509 64.5645 25.5259 65.9013 25.068C67.1934 24.6691 68.1143 23.7385 68.6936 22.4681C69.3025 21.2273 69.763 19.8239 70.4016 18.4945C71.0254 17.1502 71.8126 15.8946 72.6592 14.7129C74.3376 12.3346 76.1496 10.0745 77.9616 7.81439L80.7094 4.46119C81.155 3.89985 81.6154 3.33851 81.9719 2.71809C82.1501 2.40788 82.2986 2.0829 82.3283 1.72838C82.3877 1.38862 82.2095 1.00456 81.853 0.901154Z" fill="white"/>
<path d="M40.7705 41.8634C40.919 43.119 40.9933 44.4337 40.518 45.645C40.3992 45.9552 40.1913 46.2211 39.9536 46.4427C39.6863 46.6495 39.3595 46.7825 39.0328 46.8268L37.1465 47.137L33.359 47.7722C32.1114 48.0085 30.6856 48.0676 29.4676 47.3733C28.8735 47.0336 28.3686 46.487 28.0863 45.8666C27.819 45.2462 27.6408 44.5667 27.6408 43.9167C27.5814 42.602 27.6705 41.3316 27.7893 40.0612C28.0418 37.5057 28.5022 34.9945 29.0666 32.498C30.2103 27.5052 31.948 22.66 34.0126 17.992C36.0622 13.3241 38.4089 8.73008 41.2012 4.44623C41.4834 3.95876 41.9439 3.22017 42.6122 2.8361C43.2806 2.42249 43.9787 2.28954 44.6471 2.18614C45.9689 2.00887 47.2908 2.06797 48.5385 2.03843C51.0931 2.00889 53.6626 1.87592 56.2767 2.14182C56.9302 2.21568 57.5837 2.3191 58.2669 2.57022C58.5937 2.70316 58.9799 2.86565 59.2769 3.27926C59.6037 3.72242 59.4849 4.37238 59.2769 4.68258C59.069 5.05188 58.8462 5.27347 58.6531 5.52459L58.059 6.26319L56.9005 7.7699C55.3855 9.80842 53.9003 11.8765 52.4893 13.9741C51.0783 16.0865 49.7267 18.2284 48.5236 20.4589C47.3948 22.719 46.2363 25.0087 45.1818 27.3131C43.043 31.922 41.6468 36.841 40.7705 41.8634ZM40.7705 41.8634C41.4686 36.8262 42.7014 31.8333 44.6916 27.1211C45.6867 24.7576 46.8007 22.4827 47.8998 20.1635C49.0732 17.8739 50.3802 15.6876 51.7763 13.531C53.1576 11.3743 54.6132 9.27664 56.1282 7.22335L58.4006 4.23942C58.5194 4.01785 58.5046 3.92922 58.4452 3.85536C58.3858 3.75196 58.1481 3.60425 57.8956 3.51562C57.3758 3.32358 56.752 3.22017 56.143 3.16108C53.6626 2.90996 51.108 3.05767 48.5533 3.10198C47.2463 3.13153 45.9987 3.10198 44.7956 3.26447C44.2015 3.3531 43.6222 3.48607 43.2064 3.76674C42.7608 4.0474 42.5083 4.43147 42.1518 5.03712C39.3595 9.27665 37.0128 13.7673 34.9483 18.4057C32.854 23.0293 31.1609 27.8006 29.9132 32.7049C29.3043 35.157 28.7993 37.6387 28.5022 40.1499C28.3685 41.3907 28.2497 42.6759 28.2794 43.9019C28.3091 45.1132 28.7399 46.3393 29.7647 46.9302C30.7747 47.5506 32.0817 47.5801 33.3293 47.3881L37.1316 46.8859C38.3198 46.62 39.9388 46.9302 40.4141 45.5859C40.8893 44.4337 40.8745 43.1043 40.7705 41.8634Z" fill="white"/>
<path d="M63.5694 36.4422C63.8962 35.482 64.1487 34.4775 64.2081 33.4583C64.2675 32.4833 64.1487 31.3016 63.2724 30.7255C62.8565 30.4301 62.3218 30.4005 61.8317 30.2971C61.3267 30.2085 60.8217 30.1346 60.3167 30.0755C59.3067 29.9574 58.2819 29.8835 57.2571 29.913C55.2371 29.9721 53.1132 30.5187 51.7616 31.9959C51.0932 32.7345 50.7219 33.6651 50.3654 34.6253C50.0238 35.5707 49.7268 36.5456 49.4891 37.5353C48.5237 41.4794 48.1375 45.5417 48.0039 49.5892C47.8405 53.6514 47.989 57.7137 48.3306 61.7612C48.4346 63.6963 48.9544 65.7348 50.2169 67.0643C50.8556 67.7143 51.7022 68.054 52.623 68.0245L55.6975 67.9802C56.7075 67.9358 57.7175 67.8915 58.6829 67.7143C59.6483 67.537 60.5692 67.1825 61.1336 66.5177C61.6832 65.8382 61.6535 64.8337 61.6535 63.7997C61.6535 62.7805 61.6089 61.776 61.5643 60.7567C61.401 56.6944 61.0891 52.5731 61.5643 48.5108C61.9654 44.4633 62.9902 40.4897 63.5694 36.4422ZM63.5694 36.4422C63.0496 40.4897 62.0842 44.4781 61.7129 48.5404C61.3564 52.6026 61.8168 56.6797 62.1139 60.7419C62.1882 61.7612 62.2624 62.7804 62.307 63.8145C62.3218 64.3315 62.3515 64.819 62.307 65.3803C62.2921 65.9416 62.0545 66.503 61.7426 66.9904C60.9999 67.9358 59.886 68.3494 58.8612 68.5858C57.8215 68.8221 56.7669 68.9108 55.7272 68.9551L52.6379 69.0437C51.4942 69.1028 50.2912 68.6449 49.4891 67.8177C48.6722 67.02 48.1524 66.0155 47.8108 64.9962C47.4692 63.9917 47.2612 62.8986 47.2167 61.8646C46.6671 53.7105 46.7562 45.3644 48.9544 37.4171C49.2366 36.4274 49.5634 35.4525 49.9496 34.4923C50.3357 33.5469 50.7665 32.5572 51.5091 31.7891C53.0241 30.238 55.2371 29.8096 57.2571 29.7801C58.2819 29.7505 59.3216 29.8392 60.3316 29.9869C60.8366 30.0608 61.3416 30.1346 61.8614 30.2232C62.3515 30.3266 62.9011 30.3562 63.3318 30.6812C64.2378 31.3016 64.3269 32.4981 64.2675 33.4731C64.1636 34.4923 63.9111 35.482 63.5694 36.4422Z" fill="white"/>
<path d="M65.3517 77.5968C65.1141 76.5332 64.7576 75.4844 64.1486 74.5686C63.5397 73.6675 62.6782 72.9141 61.6534 72.5448C60.6286 72.146 59.4998 72.1755 58.4304 72.2937C57.3461 72.4119 56.2619 72.6039 55.2073 72.8994C54.1677 73.2096 53.1428 73.6527 52.3408 74.3765C51.5387 75.0856 51.0337 76.0753 50.9892 77.1389C50.9298 78.2025 51.2714 79.2365 51.6576 80.241C52.0437 81.2602 52.4745 82.2647 52.8903 83.2692C54.5835 87.2872 56.3659 91.2756 58.1482 95.264C59.9156 99.2524 61.6683 103.27 63.5694 107.17C64.5497 109.046 65.4557 111.218 67.342 111.794C68.2777 112.089 69.3619 112.089 70.4462 112.104C71.5304 112.119 72.5998 112.074 73.6395 111.897C74.6643 111.72 75.6892 111.41 76.3872 110.76C77.115 110.139 77.2487 109.12 77.0259 108.116C76.4467 106.121 75.5852 104.024 74.8574 101.985C71.8572 93.8016 68.7827 85.6179 65.3517 77.5968ZM65.3517 77.5968C67.1489 81.5852 68.7827 85.6327 70.4313 89.6802L75.407 101.808C76.209 103.861 77.0853 105.796 77.7982 107.968C77.9319 108.544 77.9913 109.135 77.8874 109.755C77.7537 110.361 77.4715 110.966 77.0111 111.395C76.105 112.281 74.9317 112.636 73.8177 112.843C72.6889 113.049 71.575 113.094 70.461 113.108C69.3619 113.094 68.2183 113.138 67.0449 112.783C65.8567 112.444 64.8764 111.528 64.2526 110.582C63.5991 109.637 63.0941 108.662 62.5891 107.672C58.9057 99.6955 55.5638 91.6449 52.4002 83.4908C52.014 82.4715 51.613 81.4523 51.2565 80.4183C50.9001 79.3842 50.5585 78.2763 50.6624 77.1389C50.7367 76.0015 51.3308 74.9231 52.1923 74.2141C53.0537 73.4902 54.1231 73.0914 55.1628 72.7664C56.2322 72.471 57.3164 72.2937 58.4155 72.1903C59.4998 72.0721 60.6434 72.0574 61.6831 72.4857C62.7228 72.8846 63.5842 73.6527 64.1783 74.5686C64.7725 75.4697 65.1141 76.5332 65.3517 77.5968Z" fill="white"/>
<path d="M40.3992 56.3251C40.2952 55.2763 40.0427 54.2127 39.4189 53.3559C39.107 52.9275 38.6763 52.5878 38.1713 52.4548C37.6663 52.3219 37.1316 52.3514 36.5969 52.3662C34.473 52.4401 32.3788 52.8537 30.2994 53.2525C29.2597 53.4446 28.1903 53.6366 27.3289 54.2127C26.4525 54.7593 25.9476 55.7342 25.8584 56.7535C25.7396 57.7727 25.9179 58.8068 26.0664 59.8556C26.2298 60.8896 26.4229 61.9384 26.6159 62.9724C27.4031 67.1233 28.3091 71.2447 29.3191 75.3365C30.3291 79.4136 31.3539 83.5497 33.0768 87.3165C33.9383 89.1335 35.1265 91.039 37.1168 90.9061C38.0822 90.8765 39.2407 90.7584 40.2804 90.7436C41.3349 90.6993 42.3746 90.6254 43.3994 90.4629C44.4094 90.2857 45.4194 90.0345 46.2214 89.5175C47.0235 89.0153 47.4691 88.1733 47.3057 87.1983C47.1423 86.2825 46.7116 85.2337 46.3997 84.2292C46.0729 83.2247 45.761 82.2054 45.464 81.1862C44.2757 77.1239 43.3103 72.9878 42.4786 68.8369C41.6023 64.686 40.919 60.5203 40.3992 56.3251ZM40.3992 56.3251C40.9785 60.5055 41.7211 64.686 42.6271 68.8073C43.5628 72.9287 44.6768 77.0057 45.9987 81.0237C46.3254 82.0282 46.667 83.0179 47.0235 84.0224C47.3651 85.0416 47.7958 85.9427 48.0483 87.0949C48.0632 87.3904 48.1077 87.6858 48.078 87.9812C48.0038 88.2767 48.0038 88.6017 47.8552 88.8676C47.6176 89.4289 47.1869 89.9164 46.6967 90.2266C45.7164 90.8913 44.6174 91.1867 43.548 91.3935C42.4637 91.5856 41.3943 91.6742 40.3249 91.7333C39.2407 91.7628 38.2753 91.8958 37.1168 91.9401C35.9583 92.014 34.6512 91.4674 33.8937 90.5811C33.0917 89.7391 32.557 88.7641 32.0817 87.7892C30.3291 83.8156 29.3785 79.6794 28.3983 75.5433C27.4922 71.4072 26.7348 67.2267 26.0812 63.0463C25.9179 61.9975 25.7693 60.9487 25.6357 59.8999C25.5168 58.8511 25.3535 57.7727 25.5317 56.6944C25.6505 55.616 26.2595 54.5525 27.2249 53.9911C28.1755 53.415 29.2597 53.2821 30.2994 53.0901C32.3936 52.7208 34.4878 52.3367 36.6266 52.2776C37.1613 52.2776 37.696 52.2481 38.2159 52.3958C38.7357 52.5435 39.1664 52.898 39.4783 53.3412C40.0724 54.1979 40.3101 55.2763 40.3992 56.3251Z" fill="white"/>
<path d="M25.606 36.5456C25.8139 35.6445 25.8139 34.6548 25.4129 33.8128C25.0119 32.9413 24.091 32.4686 23.185 32.3504C21.3581 32.0254 19.4124 31.8481 17.6747 32.5572C16.8132 32.8969 16.0854 33.5321 15.6102 34.3003C15.1052 35.0684 14.8824 35.9695 14.719 36.8854C14.4071 38.7171 14.2289 40.5783 14.0655 42.4248C13.7387 46.1326 13.5605 49.8698 13.4714 53.5924C13.3377 57.3001 13.4714 61.0374 13.9912 64.6713C14.2586 66.4144 14.7635 68.3938 16.3379 68.7335C16.7092 68.8369 17.1251 68.8222 17.6301 68.8369L19.0263 68.8665C19.9471 68.8665 20.8531 68.8222 21.6849 68.6006C22.1008 68.4824 22.4721 68.3199 22.7691 68.0983C23.0513 67.862 23.1999 67.5518 23.2741 67.1973C23.289 66.8575 23.2444 66.3405 23.2147 65.8826L23.1404 64.4792C23.081 62.6032 23.081 60.7272 23.1404 58.8512C23.2444 55.1139 23.5415 51.3766 23.9573 47.6688C24.3435 43.902 24.8931 40.209 25.606 36.5456ZM25.606 36.5456C24.9525 40.2238 24.4475 43.9316 24.1059 47.6393C23.794 51.3618 23.6603 55.0843 23.69 58.8216C23.7049 60.6829 23.7643 62.5441 23.8979 64.4054L24.0168 65.7939C24.0613 66.2519 24.1356 66.6802 24.1356 67.2711C24.0762 67.8325 23.8088 68.4086 23.3632 68.7926C22.9325 69.1619 22.4275 69.3687 21.9374 69.5165C20.9571 69.7971 19.9768 69.8414 19.0263 69.8562L17.6004 69.8414C17.1697 69.8267 16.6201 69.8562 16.0854 69.7233C14.9715 69.5165 14.11 68.5858 13.6793 67.67C13.2337 66.7393 13.0406 65.7792 12.8773 64.8338C12.3871 61.0669 12.3129 57.3001 12.506 53.5481C12.699 49.8108 13.0406 46.0735 13.5011 42.3657C13.7387 40.5045 13.9912 38.658 14.3774 36.8115C14.5853 35.8956 14.8527 34.9503 15.4022 34.1673C15.9369 33.3697 16.7241 32.7492 17.6153 32.4095C19.4124 31.7152 21.373 31.922 23.1999 32.2765C24.1207 32.4242 25.0564 32.9265 25.4426 33.8128C25.8436 34.6548 25.8288 35.6445 25.606 36.5456Z" fill="white"/>
<path d="M37.993 5.89401C38.3049 5.2145 38.5574 4.4759 38.5425 3.7373C38.5277 3.36801 38.4237 2.99872 38.2009 2.70328C37.9633 2.40784 37.6068 2.26012 37.2504 2.17149C35.7651 2.009 34.2353 1.99423 32.7352 1.96469C31.235 1.96469 29.7201 2.05332 28.2645 2.40785C26.8387 2.76237 25.3979 3.41233 24.9375 4.8452C23.7047 7.57799 22.6205 10.3699 21.5957 13.1913C20.5857 15.9979 19.5608 18.8342 19.1747 21.7442C19.0559 22.468 18.9816 23.2066 18.9667 23.9157C18.9519 24.61 19.041 25.3338 19.3529 25.7622C19.65 26.2053 20.2441 26.3087 21.0016 26.3087C21.759 26.3383 22.5017 26.353 23.2443 26.3235C24.6999 26.2644 26.2148 26.1462 27.4476 25.4963C28.0714 25.1713 28.5319 24.6986 28.7992 24.0486C29.1111 23.3543 29.4379 22.6748 29.7646 21.9953C31.0865 19.2921 32.4827 16.6184 33.864 13.9447L37.993 5.89401ZM37.993 5.89401C35.2898 11.271 32.6757 16.6922 30.2845 22.2021C29.9874 22.8964 29.6904 23.5759 29.423 24.2702C29.1557 25.0383 28.5467 25.7326 27.8486 26.1315C26.4228 26.9439 24.8187 27.1507 23.2889 27.2393C22.5165 27.2837 21.7442 27.2689 20.9867 27.2689C20.2738 27.2836 19.1598 27.2098 18.536 26.353C17.9568 25.5406 17.9122 24.669 17.8973 23.8861C17.8973 23.0884 17.9716 22.3203 18.0756 21.5669C18.536 18.5092 19.6351 15.6582 20.7045 12.8368C21.8333 10.0301 23.0809 7.28256 24.4325 4.59408C24.581 4.25433 24.8038 3.91456 25.0563 3.58958C25.3385 3.29414 25.6504 3.02826 25.992 2.83622C26.6753 2.45215 27.4327 2.20103 28.1754 2.06808C29.6904 1.77264 31.2053 1.78742 32.7203 1.8022C34.2353 1.86128 35.7354 1.9056 37.2504 2.08286C37.6217 2.18627 37.993 2.34876 38.2306 2.65897C38.4683 2.96918 38.5574 3.35324 38.5723 3.7373C38.5871 4.49067 38.3346 5.22927 37.993 5.89401Z" fill="white"/>
<path d="M25.7544 77.7591C25.5911 76.8285 25.3386 75.8831 24.789 75.1002C24.5217 74.7161 24.1058 74.3911 23.6305 74.4059C23.1701 74.4206 22.7096 74.6127 22.2789 74.8047C20.5708 75.6172 19.041 76.8728 18.0013 78.4386C17.4815 79.2215 17.125 80.1078 16.9914 81.0385C16.8725 81.9691 17.0656 82.8849 17.2884 83.8008C17.7786 85.6325 18.3727 87.4347 18.9816 89.2368C20.1995 92.8412 21.5214 96.4012 22.8582 99.9612L24.8484 105.309C25.5316 107.081 26.1258 108.898 27.3437 110.154C27.9229 110.789 28.6656 111.217 29.4973 111.365C30.2993 111.528 31.2648 111.395 32.2005 111.336C33.1214 111.232 34.0422 111.084 34.9037 110.804C35.7503 110.523 36.5375 110.08 36.9385 109.415C37.3247 108.736 37.2355 107.923 36.9236 107.037C36.6414 106.151 36.285 105.279 35.9285 104.408C35.1859 102.679 34.3541 100.951 33.5669 99.2226C32.7797 97.4943 32.0223 95.7365 31.3687 93.9343L29.5122 88.5278L25.7544 77.7591ZM25.7544 77.7591L29.6904 88.4835L31.7103 93.8161C32.4233 95.574 33.2253 97.2875 34.0868 98.9863C34.9334 100.685 35.8245 102.369 36.6414 104.097C37.0425 104.969 37.4435 105.84 37.7702 106.756C38.1119 107.628 38.3792 108.854 37.7851 109.888C37.1761 110.878 36.181 111.395 35.2453 111.734C34.2947 112.074 33.3144 112.237 32.3342 112.355C31.3687 112.443 30.4033 112.606 29.3191 112.414C28.2645 112.237 27.2546 111.675 26.5416 110.922C25.1009 109.371 24.5365 107.421 23.883 105.678L21.967 100.301C20.7342 96.6966 19.5609 93.0775 18.4618 89.4289C17.9122 87.5972 17.3924 85.7802 16.9617 83.9042C16.7686 82.9736 16.5903 81.9986 16.7537 81.0237C16.9171 80.0635 17.333 79.1624 17.8677 78.3647C18.9668 76.7842 20.5114 75.5433 22.2492 74.7456C22.6799 74.5536 23.1404 74.3616 23.6305 74.3616C24.1355 74.3616 24.5514 74.7013 24.8187 75.0854C25.3683 75.8683 25.6059 76.8285 25.7544 77.7591Z" fill="white"/>
<path d="M54.1083 99.3113C53.7221 98.2625 53.1874 97.2433 52.4448 96.3865C51.7318 95.5297 50.6773 94.865 49.5485 94.9389C47.2909 95.1309 45.0184 94.9979 42.746 94.9241C41.632 94.9241 40.4438 94.8207 39.4338 95.2343C38.3793 95.6331 37.9486 96.8001 38.0377 97.8785C38.1862 100.079 39.3744 102.103 40.2359 104.157C43.949 112.355 48.0632 120.435 51.2714 128.87C52.118 130.864 53.232 132.947 55.1777 133.582C55.6529 133.745 56.1579 133.789 56.6778 133.789C57.2125 133.789 57.8066 133.745 58.371 133.73C59.4998 133.685 60.6137 133.626 61.7128 133.493C62.7971 133.346 63.8962 133.154 64.8319 132.696C65.7676 132.238 66.436 131.44 66.5548 130.421C66.6885 129.402 66.436 128.338 66.0795 127.274C65.7379 126.211 65.3517 125.147 64.9656 124.099C61.7425 115.664 58.0145 107.436 54.1083 99.3113ZM54.1083 99.3113C56.1282 103.344 58.0442 107.436 59.9454 111.528C61.8465 115.619 63.7625 119.711 65.5003 123.877C65.931 124.926 66.3469 125.975 66.733 127.053C67.1192 128.102 67.4608 129.283 67.342 130.51C67.2529 131.765 66.3469 132.917 65.2626 133.464C64.1784 134.04 63.005 134.276 61.8614 134.439C60.7177 134.587 59.574 134.66 58.4304 134.72C57.8511 134.749 57.3164 134.793 56.7223 134.808C56.1134 134.823 55.4747 134.764 54.8806 134.572C53.6627 134.203 52.6676 133.331 51.9546 132.386C51.2417 131.425 50.7219 130.377 50.2614 129.328C49.3703 127.201 48.687 125.088 47.781 123.035L45.0778 116.831C43.2807 112.695 41.4835 108.559 39.7309 104.393C39.3002 103.344 38.8694 102.31 38.4684 101.246C38.0674 100.183 37.7258 99.075 37.7109 97.908C37.6961 97.3319 37.7852 96.7263 38.0525 96.1945C38.3199 95.6627 38.7952 95.2343 39.3596 95.0275C40.4884 94.6139 41.6469 94.7911 42.7757 94.7911C45.0333 94.8798 47.3057 95.0423 49.5633 94.8798C50.7367 94.8059 51.7912 95.5002 52.5042 96.3717C53.2171 97.2285 53.7369 98.2478 54.1083 99.3113Z" fill="white"/>
<path d="M84.8532 120.583C83.6799 118.766 82.1501 117.008 80.0707 116.24C79.0459 115.841 77.9171 115.944 76.818 115.989C75.7189 116.063 74.6346 116.225 73.5801 116.535C72.5404 116.831 71.5156 117.318 70.7581 118.072C70.0451 118.854 69.6887 119.948 69.7332 120.996C69.9115 123.123 71.0551 125.073 71.976 127.053C73.8474 131.041 75.5109 135.118 76.8774 139.313C77.5457 141.411 78.125 143.553 78.5557 145.724C79.0013 147.925 79.0904 150.126 79.5063 152.224C79.6994 153.258 79.937 154.366 80.5311 154.927C81.0955 155.459 82.3431 155.577 83.3531 155.769C85.4622 156.035 87.6753 156.02 89.7695 155.622C90.7943 155.4 91.834 155.105 92.6212 154.514C93.0222 154.233 93.2896 153.849 93.4381 153.421C93.5569 153.007 93.5421 152.446 93.5272 151.914C93.4381 149.757 93.1707 147.571 92.8737 145.414C92.235 141.086 91.3587 136.787 90.1111 132.592C88.8635 128.397 87.2445 124.276 84.8532 120.583ZM84.8532 120.583C87.2742 124.246 88.9526 128.353 90.2745 132.533C91.6112 136.714 92.6657 140.983 93.4232 145.311C93.7945 147.482 94.1362 149.654 94.2847 151.87C94.3144 152.431 94.3738 152.977 94.2104 153.627C94.0322 154.248 93.646 154.794 93.1559 155.178C92.1905 155.947 91.0617 156.301 89.9477 156.552C87.705 157.01 85.4622 157.054 83.2046 156.789C82.6253 156.7 82.1055 156.611 81.5411 156.493C80.9916 156.375 80.338 156.198 79.8033 155.71C78.7934 154.706 78.6597 153.494 78.4072 152.416C78.0062 150.2 77.9319 148.014 77.5309 145.902C77.1447 143.775 76.5952 141.662 75.9565 139.579C74.7089 135.399 73.2088 131.278 71.4561 127.274C70.6095 125.28 69.4956 123.286 69.3619 120.996C69.3471 119.859 69.7629 118.721 70.5501 117.894C71.3819 117.111 72.4364 116.668 73.5058 116.373C74.5752 116.077 75.6743 115.93 76.7734 115.871C77.8576 115.826 79.0161 115.738 80.0558 116.166C82.1946 116.964 83.7096 118.751 84.8532 120.583Z" fill="white"/>
<path d="M94.4926 166.686C94.4628 165.593 94.2846 164.514 93.9727 163.48C93.6608 162.446 93.1707 161.442 92.3686 160.703C91.9825 160.319 91.4923 160.083 90.9873 159.891C90.4675 159.773 89.9179 159.714 89.3684 159.684C88.2841 159.61 87.185 159.595 86.1008 159.64C85.0166 159.684 83.9175 159.817 82.8778 160.068C81.8381 160.319 80.7984 160.777 80.2191 161.634C79.6399 162.491 79.4914 163.599 79.328 164.662C79.1795 165.726 79.1052 166.804 79.0161 167.897C78.6151 172.255 77.917 176.568 76.9516 180.837C76.4466 182.965 75.8822 185.077 75.1989 187.175C74.486 189.272 73.6988 191.252 73.179 193.334C72.9116 194.354 72.6888 195.402 72.674 196.407C72.6591 197.411 72.9265 198.357 73.7285 198.726C74.0998 198.933 74.6197 199.022 75.1544 199.125C75.6742 199.228 76.2089 199.317 76.7436 199.376C77.813 199.509 78.8824 199.583 79.9369 199.553C82.0312 199.494 84.2739 199.14 85.7146 197.692C86.3979 196.998 86.8434 195.964 87.3187 195.004C87.7643 194.029 88.195 193.024 88.596 192.02C91.7745 183.925 93.6905 175.342 94.4926 166.686ZM94.4926 166.686C94.1361 171.029 93.5123 175.342 92.5914 179.597C91.7003 183.851 90.6012 188.09 89.1159 192.197C88.7594 193.231 88.3436 194.25 87.9277 195.255C87.4672 196.244 87.0959 197.293 86.279 198.194C85.477 199.066 84.4076 199.612 83.3085 199.952C82.2094 200.292 81.0806 200.454 79.9667 200.484C78.8378 200.528 77.7239 200.469 76.6248 200.336C76.0753 200.277 75.5257 200.189 74.9762 200.1C74.4415 199.997 73.8622 199.923 73.2681 199.612C72.6888 199.332 72.169 198.8 71.9314 198.18C71.6937 197.589 71.6046 196.968 71.6195 196.377C71.6195 195.196 71.8422 194.103 72.1244 193.024C72.6888 190.882 73.5355 188.829 74.2484 186.805C74.9465 184.767 75.5406 182.684 76.0604 180.586C77.1149 176.391 77.9615 172.122 78.4962 167.823C78.6151 166.745 78.7339 165.652 78.9121 164.574C79.1052 163.51 79.2834 162.373 79.9518 161.412C80.635 160.452 81.7787 160.024 82.8481 159.802C83.9323 159.566 85.0314 159.492 86.1305 159.448C87.2296 159.418 88.3287 159.448 89.4129 159.536C89.9625 159.566 90.4972 159.64 91.0467 159.773C91.5666 159.965 92.0716 160.231 92.4577 160.615C93.2598 161.383 93.7499 162.402 94.047 163.451C94.3143 164.514 94.4777 165.608 94.4926 166.686Z" fill="white"/>
<path d="M80.5015 208.535C80.4569 207.471 80.2341 206.378 79.6994 205.447C79.4321 204.989 79.0756 204.561 78.63 204.265C78.1844 203.97 77.6646 203.808 77.1448 203.689C75.0505 203.217 72.7781 203.335 70.8621 204.31C69.9115 204.782 69.0798 205.506 68.4411 206.348C67.7876 207.19 67.4014 208.195 66.9558 209.17L64.3566 215.078C62.6337 219.023 60.9405 222.981 59.277 226.94C57.6878 230.914 55.6233 234.828 55.4896 238.994C55.4599 239.999 55.5341 241.062 55.9946 241.816C56.2174 242.185 56.5293 242.48 56.9303 242.643C57.3016 242.776 57.8809 242.879 58.4007 242.983C60.4801 243.352 62.6634 243.632 64.5349 242.953C65.4557 242.598 66.1983 241.934 66.6142 241.062C67.0449 240.146 67.3866 239.098 67.743 238.093C68.4411 236.055 69.1095 234.016 69.8521 231.992C71.3225 227.945 73.1048 223.971 75.3921 220.308C76.4764 218.446 77.5309 216.57 78.4666 214.635C79.4024 212.7 80.2193 210.676 80.5015 208.535ZM80.5015 208.535C80.249 210.676 79.4469 212.715 78.5558 214.665C77.6497 216.615 76.6101 218.506 75.5555 220.382C73.3573 224.089 71.7384 228.092 70.4017 232.155C69.7184 234.193 69.1243 236.247 68.4857 238.315C68.1589 239.349 67.8618 240.368 67.4163 241.417C66.9558 242.495 66.0053 243.411 64.9062 243.825C62.6783 244.652 60.3761 244.327 58.2373 243.987C57.6878 243.884 57.1976 243.839 56.5441 243.618C55.9352 243.381 55.4153 242.909 55.0886 242.377C54.4202 241.269 54.3756 240.072 54.3905 238.95C54.5093 236.719 55.0737 234.548 55.8906 232.524C56.6926 230.5 57.5392 228.536 58.4155 226.556C60.183 222.627 62.0247 218.727 63.8665 214.842L66.6588 209.007C67.1341 208.047 67.5648 207.028 68.2629 206.186C68.9461 205.329 69.8224 204.635 70.8027 204.162C72.7781 203.202 75.0802 203.098 77.1745 203.615C77.6943 203.734 78.229 203.911 78.6746 204.221C79.1202 204.531 79.4766 204.96 79.744 205.432C80.249 206.378 80.4569 207.456 80.5015 208.535Z" fill="white"/>
<path d="M64.8765 253.81C64.9656 252.791 64.9507 251.757 64.7725 250.767C64.5943 249.792 64.2378 248.714 63.3466 248.197C62.9159 247.916 62.3812 247.931 61.8762 247.872L60.3464 247.769C59.3216 247.724 58.2967 247.71 57.2867 247.813C55.3113 248.005 53.1131 248.685 52.1626 250.487C51.717 251.344 51.5685 252.378 51.3902 253.367C51.2269 254.372 51.0932 255.376 50.9892 256.395C50.5733 260.443 50.4842 264.52 50.6327 268.582C50.7813 272.63 51.212 276.707 52.3705 280.533C52.9498 282.409 53.7221 284.344 55.1183 285.614C55.8015 286.235 56.6481 286.604 57.5689 286.574C58.5938 286.56 59.6038 286.545 60.6137 286.456C61.6089 286.368 62.604 286.235 63.51 285.895C64.4012 285.57 65.2181 285.023 65.5448 284.181C65.9013 283.339 65.8122 282.364 65.6934 281.345L65.3369 278.302C64.3715 270.163 64.2675 261.95 64.8765 253.81ZM64.8765 253.81C64.624 257.887 64.5497 261.979 64.6834 266.056C64.8616 270.133 65.2923 274.196 65.9013 278.228L66.3617 281.257C66.5102 282.231 66.6885 283.384 66.2578 284.462C65.8567 285.57 64.817 286.294 63.8219 286.693C62.7971 287.106 61.7425 287.283 60.7029 287.387C59.6632 287.49 58.6235 287.52 57.5986 287.535C56.4401 287.594 55.2816 287.091 54.4499 286.353C52.7567 284.831 51.9695 282.793 51.3308 280.828C50.1723 276.81 49.801 272.689 49.697 268.582C49.6376 264.476 49.905 260.369 50.4545 256.307C50.5882 255.288 50.7664 254.283 50.9595 253.264C51.1823 252.274 51.3457 251.24 51.8804 250.295C52.4151 249.364 53.3062 248.699 54.2717 248.3C55.2371 247.902 56.2768 247.724 57.3016 247.636C58.3264 247.547 59.3661 247.562 60.3909 247.621L61.9208 247.739C62.4109 247.798 62.9753 247.798 63.4209 248.094C64.3269 248.655 64.6685 249.748 64.8319 250.738C64.9804 251.757 64.9804 252.791 64.8765 253.81Z" fill="white"/>
<path d="M70.8621 295.231C70.2383 293.798 69.3917 292.439 68.2629 291.346C67.6985 290.814 67.0301 290.356 66.3024 290.12C65.5597 289.869 64.7725 289.898 63.9853 289.972C62.411 290.105 60.8366 290.282 59.3513 290.711C58.6087 290.932 57.8809 291.228 57.3016 291.671C56.7075 292.114 56.3362 292.779 56.3511 293.502C56.3511 294.226 56.5739 294.921 56.9006 295.644C57.1977 296.368 57.5244 297.077 57.866 297.772C58.5344 299.175 59.2622 300.563 59.99 301.952C61.4455 304.714 62.9754 307.462 64.6983 310.032C65.53 311.332 66.4657 312.529 67.7282 313.282C68.9758 314.05 70.4611 314.183 72.0355 314.124C73.5802 314.094 75.1546 314.006 76.6695 313.725C77.4122 313.577 78.1845 313.415 78.838 313.09C79.4915 312.78 80.0856 312.292 79.8926 311.642C79.7292 311.022 79.2093 310.298 78.8529 309.633L77.6498 307.61L75.2437 303.547C73.6396 300.859 72.0206 298.156 70.8621 295.231ZM70.8621 295.231C72.0652 298.126 73.7435 300.8 75.3773 303.488C76.2091 304.818 77.0854 306.132 77.9469 307.447L79.239 309.427L79.8777 310.431C80.0856 310.756 80.2936 311.096 80.4421 311.554C80.5015 311.746 80.4421 312.012 80.4421 312.233C80.3678 312.455 80.2787 312.691 80.1302 312.868C79.8331 313.223 79.4767 313.474 79.1054 313.681C78.3627 314.08 77.5755 314.272 76.7883 314.464C75.214 314.804 73.6247 314.996 72.0206 315.055C70.4611 315.143 68.6491 315.04 67.1787 314.139C65.6934 313.282 64.624 311.938 63.7477 310.623C62.0248 307.949 60.5395 305.172 59.1137 302.351C58.4156 300.933 57.7621 299.5 57.1383 298.052C56.8264 297.328 56.5293 296.59 56.262 295.851C55.9798 295.142 55.7273 294.285 55.7718 293.443C55.8015 292.572 56.3214 291.745 57.0046 291.287C57.6878 290.814 58.475 290.548 59.2473 290.341C60.8069 289.957 62.3961 289.883 63.9705 289.78C64.7428 289.706 65.5746 289.691 66.3321 289.972C67.0896 290.238 67.7579 290.696 68.3223 291.257C69.4363 292.395 70.2532 293.783 70.8621 295.231Z" fill="white"/>
<path d="M56.9896 313.695C57.6432 313.636 58.2818 313.489 58.8759 313.252C59.47 313.016 60.0493 312.632 60.3018 312.026C60.5691 311.421 60.4058 310.756 60.1384 310.18C59.8265 309.618 59.47 309.072 59.1136 308.54C57.6877 306.369 56.3213 304.168 55.0291 301.922C52.415 297.446 50.0386 292.808 48.2117 287.933C46.3551 283.059 45.4046 277.874 44.558 272.807C44.3055 271.566 44.0678 270.266 43.4292 269.35C43.1321 268.878 42.6568 268.641 42.1221 268.494C41.6171 268.361 40.8745 268.346 40.2655 268.272C37.7109 268.05 35.082 267.888 32.7204 268.567C31.547 268.878 30.5668 269.587 30.2697 270.621C30.1212 271.123 30.136 271.714 30.1657 272.379C30.1954 273.014 30.24 273.649 30.2994 274.284C30.5519 276.84 30.9826 279.38 31.5173 281.892C32.5719 286.944 34.1017 291.863 36.1959 296.604C38.2456 301.346 40.3992 306.073 42.9984 310.549C43.6817 311.627 44.3946 312.765 45.4788 313.474C46.5482 314.198 47.8998 314.39 49.1771 314.345L53.1131 314.05C54.4053 313.961 55.7123 313.917 56.9896 313.695ZM56.9896 313.695C55.7123 313.932 54.4053 313.976 53.1131 314.094L49.2217 314.405C47.9295 314.464 46.5631 314.286 45.4491 313.548C44.3352 312.824 43.6074 311.687 42.8945 310.608C40.1913 306.162 37.8891 301.509 35.7058 296.796C33.4779 292.114 31.755 287.136 30.6113 282.069C30.0321 279.528 29.5716 276.958 29.2894 274.358C29.2152 273.708 29.1706 273.058 29.126 272.393C29.1112 272.054 29.0815 271.743 29.0963 271.389C29.1409 271.02 29.1112 270.65 29.2449 270.296C29.4231 269.557 29.9132 268.907 30.4925 268.434C31.0866 267.977 31.7401 267.666 32.4085 267.474C35.0968 266.75 37.7703 266.987 40.3844 267.223C41.0676 267.312 41.632 267.312 42.3895 267.489C43.1024 267.666 43.8599 268.095 44.2461 268.745C45.0778 269.985 45.2412 271.33 45.5085 272.615C46.2512 277.755 47.0235 282.852 48.7464 287.727C50.4248 292.601 52.6527 297.299 55.1776 301.819C56.455 304.079 57.7917 306.295 59.2027 308.466C59.5592 309.013 59.9156 309.545 60.2127 310.135C60.4652 310.726 60.6285 311.421 60.3612 312.026C60.0939 312.632 59.4997 313.016 58.9056 313.252C58.2818 313.503 57.6432 313.651 56.9896 313.695Z" fill="white"/>
<path d="M38.0674 306.768C36.6267 304.035 35.2305 301.287 33.8789 298.51C33.2106 297.122 32.5125 295.748 31.9035 294.315C31.2946 292.882 30.8787 291.39 30.1806 290.046C29.839 289.396 29.3934 288.776 28.7993 288.48C28.2201 288.14 27.4774 288.273 26.6605 288.229C25.1159 288.199 23.5563 288.14 22.1899 288.539C21.5067 288.731 20.972 289.101 20.8234 289.647C20.6601 290.194 20.8531 290.873 21.0611 291.627C21.4918 293.089 21.982 294.537 22.5166 295.984C23.5266 298.88 24.6257 301.76 25.8288 304.596C26.4229 306.014 27.0319 307.403 27.7151 308.806C28.3983 310.18 28.9924 311.642 29.8836 312.809C30.1064 313.061 30.4034 313.445 30.6262 313.578C30.9084 313.74 31.2649 313.843 31.6362 313.903C32.3788 314.035 33.1512 314.065 33.9235 314.065C35.4682 314.065 37.0129 313.976 38.5427 313.77C39.2705 313.622 40.1913 313.681 40.6072 313.046C40.7854 312.736 40.7409 312.322 40.6518 311.967C40.5626 311.598 40.4141 311.244 40.2507 310.889C39.5675 309.486 38.7506 308.156 38.0674 306.768ZM38.0674 306.768C38.7803 308.141 39.6121 309.441 40.2953 310.83C40.4587 311.184 40.622 311.539 40.7112 311.908C40.8151 312.278 40.8745 312.706 40.6815 313.075C40.4735 313.445 40.0576 313.592 39.6715 313.696C39.2853 313.77 38.914 313.843 38.5278 313.903C36.998 314.139 35.4533 314.331 33.8938 314.39C33.1066 314.42 32.3343 314.42 31.5322 314.316C31.1312 314.272 30.7302 314.183 30.3292 313.976C29.8984 313.696 29.7202 313.445 29.4231 313.134C25.9031 307.89 23.6157 302.144 21.4473 296.324C20.9423 294.862 20.467 293.384 20.0511 291.878C19.8729 291.154 19.5758 290.268 19.8729 289.322C20.1699 288.347 21.1353 287.815 21.9225 287.609C23.5712 287.195 25.1604 287.372 26.7051 287.461L27.8636 287.535C28.2943 287.549 28.7251 287.682 29.1112 287.904C29.8984 288.347 30.344 289.101 30.6856 289.81C32.5125 295.763 35.3196 301.228 38.0674 306.768Z" fill="white"/>
<path d="M27.9379 280.887C28.027 281.803 27.5368 282.778 26.6754 283.177C25.8288 283.605 24.8634 283.605 23.9425 283.576C22.1305 283.472 20.1551 283.236 18.6995 281.98C17.2439 280.739 16.6498 278.819 16.4122 277.002C16.1448 275.17 16.0112 273.339 15.8775 271.492C15.6399 267.814 15.5062 264.136 15.4913 260.443C15.4913 258.596 15.521 256.75 15.6101 254.903C15.7141 253.057 15.8181 251.196 16.3082 249.32C16.5904 248.404 16.9766 247.399 17.838 246.705C18.7144 245.981 19.8432 245.834 20.8234 245.907C21.8186 245.981 22.7246 246.173 23.6454 246.38C24.5515 246.616 25.5911 246.912 26.3338 247.754C27.0616 248.596 27.2101 249.674 27.2695 250.605C27.314 251.565 27.2546 252.496 27.1804 253.426C27.017 255.258 26.8536 257.075 26.7794 258.907C26.512 266.219 27.2249 273.575 27.9379 280.887ZM27.9379 280.887C27.522 277.239 27.121 273.575 26.8239 269.912C26.4972 266.248 26.215 262.57 26.2447 258.877C26.2447 257.031 26.3338 255.184 26.4377 253.352C26.4823 252.451 26.4971 251.535 26.4229 250.649C26.3338 249.778 26.1407 248.921 25.6357 248.36C25.1456 247.798 24.299 247.518 23.4375 247.325C22.5612 247.133 21.6403 246.956 20.7937 246.927C19.9323 246.882 19.1154 247.03 18.551 247.518C17.9717 247.99 17.6301 248.788 17.3925 249.615C16.9172 251.299 16.7687 253.146 16.6498 254.948C16.5459 256.765 16.4865 258.611 16.4567 260.443C16.3825 264.106 16.3528 267.785 16.4567 271.463C16.5162 273.294 16.5756 275.141 16.7835 276.958C16.9617 278.745 17.437 280.636 18.8332 281.862C20.2145 283.103 22.1602 283.384 23.9722 283.502C24.8782 283.561 25.8436 283.561 26.6754 283.147C27.5071 282.748 28.0121 281.803 27.9379 280.887Z" fill="white"/>
<path d="M49.6078 233.868C49.9049 232.879 50.1128 231.845 50.1722 230.811C50.2316 229.777 50.1722 228.713 49.7266 227.782C49.2811 226.822 48.3008 226.29 47.2759 226.128C46.2511 225.921 45.2263 225.773 44.1866 225.714C42.1369 225.596 39.9684 225.788 38.1861 226.807C36.285 227.768 35.8245 229.969 35.1413 231.889C33.8788 235.833 32.854 239.866 31.9034 243.898C30.9529 247.946 30.136 251.964 29.9429 256.1C29.8686 257.119 29.7944 258.153 29.8389 259.143C29.8983 260.118 30.0766 261.093 30.7004 261.64C31.339 262.216 32.2748 262.363 33.3442 262.541L36.4187 263.146C37.4435 263.338 38.4535 263.53 39.4635 263.634C40.4586 263.722 41.528 263.781 42.3597 263.442C42.8053 263.294 43.0726 262.984 43.2212 262.614C43.34 262.245 43.3549 261.654 43.3994 261.152L43.6965 258.05C44.142 253.914 44.647 249.778 45.6273 245.73C46.6076 241.624 48.5236 237.872 49.6078 233.868ZM49.6078 233.868C48.5681 237.901 46.7116 241.668 45.8204 245.73C44.9441 249.792 44.6025 253.929 44.2906 258.065L44.0975 261.167C44.0529 261.699 44.0975 262.157 43.9341 262.807C43.741 263.397 43.2509 263.929 42.6865 264.121C41.5874 264.594 40.4734 264.52 39.404 264.476C38.3347 264.402 37.295 264.254 36.2553 264.062L33.1808 263.501C32.2154 263.338 30.9529 263.235 30.0023 262.393C29.022 261.521 28.8438 260.236 28.7695 259.187C28.7101 258.094 28.7695 257.045 28.8438 256.011C29.0814 251.846 29.9875 247.68 30.9826 243.662C32.0371 239.629 33.2253 235.641 34.6215 231.697C34.9779 230.722 35.3493 229.732 35.7948 228.787C36.2553 227.797 37.0722 226.985 38.0227 226.497C39.9387 225.493 42.1369 225.404 44.2163 225.552C45.256 225.626 46.2957 225.788 47.3205 226.01C47.573 226.069 47.8255 226.113 48.078 226.217C48.3305 226.305 48.583 226.394 48.7909 226.556C49.2514 226.822 49.5633 227.28 49.8158 227.738C50.2613 228.698 50.291 229.777 50.2316 230.811C50.1425 231.845 49.9197 232.879 49.6078 233.868Z" fill="white"/>
<path d="M68.8866 188.031C68.9609 186.923 68.8421 185.786 68.4114 184.767C67.9955 183.747 67.1043 182.891 66.0201 182.654C63.8367 182.211 61.5643 182.285 59.3809 182.699C58.2967 182.905 57.2273 183.245 56.247 183.777C55.2667 184.294 54.4201 185.033 53.9894 186.022C53.0537 188.017 52.2962 190.129 51.4942 192.197L46.8156 204.709C45.9987 206.777 45.1818 208.86 44.2609 210.898C43.3252 212.922 42.4043 214.931 41.8994 217.014C41.6617 218.033 41.4835 219.141 41.8102 219.968C41.9588 220.382 42.241 220.692 42.642 220.884C43.0133 221.076 43.6371 221.194 44.1273 221.312C46.2512 221.755 48.4791 221.962 50.6327 221.711C51.7021 221.578 52.7567 221.342 53.6627 220.84C54.6132 220.337 55.1479 219.569 55.6678 218.535C56.752 216.6 57.8066 214.635 58.8462 212.671C60.8959 208.727 62.901 204.738 64.6833 200.661C66.3765 196.569 68.0697 192.419 68.8866 188.031ZM68.8866 188.031C68.1292 192.419 66.4805 196.599 64.817 200.72C63.1238 204.842 61.2821 208.904 59.3364 212.907C58.371 214.916 57.361 216.91 56.3361 218.89C56.0836 219.377 55.8311 219.879 55.4598 220.396C55.0737 220.884 54.5984 221.268 54.0934 221.593C53.0537 222.213 51.8952 222.509 50.7515 222.657C48.4494 222.952 46.1621 222.76 43.9193 222.332C43.3401 222.184 42.8351 222.125 42.1964 221.844C41.5726 221.563 41.0527 221.002 40.8151 220.382C40.3547 219.111 40.5923 217.885 40.83 216.777C41.4092 214.547 42.3895 212.494 43.3401 210.485C44.2609 208.476 45.1075 206.422 45.9541 204.369L51.004 192.005C51.8655 189.952 52.6824 187.884 53.6924 185.875C54.1974 184.826 55.1331 184.058 56.1431 183.57C57.153 183.068 58.2521 182.773 59.3512 182.551C61.5643 182.167 63.8367 182.123 66.0349 182.595C67.1489 182.861 68.04 183.733 68.4411 184.767C68.8718 185.786 68.9758 186.923 68.8866 188.031Z" fill="white"/>
<path d="M65.4408 179.079C66.5547 179.183 67.6835 178.961 68.6787 178.474C69.6738 177.972 70.4907 177.174 71.0848 176.243C71.6938 175.313 71.9908 174.234 72.2582 173.171C72.4512 172.078 72.5701 170.984 72.6592 169.877C73.0453 165.46 73.1345 161.013 72.9117 156.597C72.8077 154.381 72.6146 152.18 72.377 149.979C72.1245 147.778 71.872 145.577 71.2482 143.509C70.6392 141.47 69.5401 139.476 67.6241 138.708C65.7378 137.925 63.4208 138.235 61.2523 138.324C59.1135 138.442 56.8411 138.959 55.9648 140.805C55.0736 142.637 55.5192 144.897 55.7123 147.084C56.1579 151.5 56.5886 155.932 56.8559 160.363C56.9896 162.579 57.0787 164.81 57.0639 167.026C57.0787 169.256 56.8114 171.472 56.6035 173.673C56.5292 174.781 56.3955 175.889 56.544 176.982C56.6034 177.528 56.8114 178.06 57.2273 178.415C57.6431 178.769 58.2075 178.887 58.7571 178.976C60.9701 179.153 63.2129 179.212 65.4408 179.079ZM65.4408 179.079C63.2129 179.242 60.985 179.212 58.7422 179.065C58.1927 178.991 57.6134 178.873 57.1679 178.503C56.7223 178.134 56.4995 177.558 56.4252 177.011C56.2767 175.903 56.3807 174.781 56.4401 173.673C56.9154 169.241 56.7223 164.825 56.2915 160.408C55.8905 155.991 55.2964 151.604 54.7617 147.187C54.5538 145.045 53.9745 142.652 55.0291 140.348C55.5489 139.21 56.6034 138.353 57.7322 137.91C58.861 137.452 60.0196 137.305 61.1632 137.216C62.3069 137.142 63.3911 137.113 64.5496 137.113C65.6933 137.142 66.8963 137.26 68.0251 137.748C69.1539 138.22 70.1045 139.077 70.758 140.052C71.4115 141.042 71.8571 142.12 72.169 143.228C72.7928 145.429 72.9562 147.674 73.1493 149.89C73.3275 152.106 73.4464 154.337 73.4909 156.552C73.58 160.999 73.3127 165.46 72.8374 169.862C72.7334 170.97 72.5998 172.063 72.3918 173.171C72.1096 174.249 71.7977 175.327 71.1591 176.273C70.5501 177.203 69.7035 178.001 68.7084 178.489C67.6835 178.976 66.5547 179.183 65.4408 179.079Z" fill="white"/>
<path d="M43.2064 120.435C42.8648 119.416 42.4193 118.426 41.7657 117.555C41.1122 116.698 40.1765 116.018 39.0923 115.915C36.9535 116.004 34.7701 116.299 32.7205 116.934C31.7105 117.274 30.6857 117.732 30.0173 118.544C29.7202 118.958 29.5271 119.445 29.5717 119.963C29.6014 120.465 29.7945 120.967 29.9727 121.469L32.1709 127.555C33.6265 131.618 35.082 135.68 36.3445 139.831C36.9683 141.884 37.503 144.07 37.6813 146.242C37.9338 148.398 38.0229 150.57 38.5724 152.549C38.8398 153.524 39.2705 154.455 39.9834 154.972C40.3696 155.208 40.7409 155.341 41.2756 155.415L42.8797 155.637C45.0036 155.903 47.1573 156.065 49.1772 155.651C50.1575 155.415 51.1229 155.016 51.613 154.233C52.1329 153.45 52.118 152.446 51.9695 151.368C51.7319 149.24 51.3903 147.113 51.0041 145.001C49.4446 136.566 46.9493 128.22 43.2064 120.435ZM43.2064 120.435C45.1224 124.305 46.7414 128.323 48.0781 132.415C49.4446 136.507 50.6179 140.673 51.5388 144.897C51.9992 147.01 52.4151 149.137 52.727 151.279C52.9052 152.298 53.0241 153.628 52.3557 154.706C51.7022 155.799 50.4842 156.331 49.4 156.597C47.1573 157.084 44.9294 156.907 42.7609 156.671L41.1419 156.464C40.5924 156.405 39.924 156.213 39.3893 155.858C38.3199 155.09 37.8298 153.923 37.5179 152.845C36.9535 150.644 36.8941 148.472 36.6713 146.345C36.5079 144.203 36.0326 142.165 35.4385 140.097C34.2949 135.96 32.9878 131.839 31.6659 127.733L29.6608 121.573C29.4974 121.07 29.3044 120.539 29.2895 119.963C29.2598 119.386 29.4974 118.825 29.8391 118.382C30.5965 117.525 31.6511 117.112 32.6759 116.772C34.7701 116.151 36.9386 115.885 39.1071 115.826C40.2211 115.945 41.1568 116.654 41.7954 117.51C42.4341 118.411 42.8797 119.416 43.2064 120.435Z" fill="white"/>
<path d="M24.9822 313.208C21.982 307.211 19.3382 301.036 17.0955 294.714C14.8973 288.391 13.011 281.877 12.4911 275.156C12.105 268.449 12.4763 261.713 13.1892 255.051C13.9021 248.374 14.9864 241.756 16.3231 235.183C18.952 222.021 22.6949 209.111 26.6903 196.318C28.6508 189.907 30.6114 183.511 32.0669 176.997C33.5225 170.497 34.3988 163.85 34.2503 157.202C34.1463 150.555 33.0472 143.952 31.2649 137.526C29.5568 131.071 26.9576 124.896 24.3732 118.721C19.0708 106.416 14.2289 93.7865 11.5702 80.5952C10.2187 74.007 9.57999 67.3006 9.3572 60.5941C9.44632 57.2409 9.31264 53.8729 9.68396 50.5345C9.81763 48.8652 9.93645 47.1813 10.0998 45.5121L10.8276 40.5339C12.907 27.254 17.0657 14.4025 22.2048 2.03842C17.2291 14.4764 13.2486 27.3722 11.3623 40.6226L10.6642 45.5859C10.5009 47.2551 10.4117 48.9096 10.2781 50.5788C9.92161 53.9025 10.085 57.2557 9.99587 60.5941C10.2632 67.271 10.9167 73.9331 12.298 80.4623C15.0012 93.565 19.8729 106.106 25.2347 118.367C27.8636 124.527 30.5074 130.746 32.26 137.26C34.0869 143.745 35.2454 150.437 35.3642 157.187C35.483 163.938 34.5622 170.674 33.0621 177.218C31.5619 183.777 29.5717 190.188 27.5814 196.599C23.5118 209.362 19.7392 222.213 17.0509 235.331C15.6845 241.875 14.5854 248.478 13.8427 255.125C13.1001 261.758 12.7139 268.464 13.0555 275.126C13.4714 281.773 15.2686 288.303 17.3628 294.64C19.5016 300.977 22.0711 307.181 24.9822 313.208Z" fill="white"/>
<path d="M1.58919 87.3905L4.41119 106.786L7.11437 126.196C7.97583 132.666 8.94126 139.122 9.72845 145.621C10.4859 152.121 10.887 158.68 10.887 165.224C10.7087 178.297 9.80272 191.444 6.86189 204.236C5.45089 210.617 3.86166 216.955 3.07447 223.425C2.18331 229.88 1.91595 236.424 1.97536 242.953C1.73772 236.424 1.81199 229.88 2.52491 223.366C3.20814 216.851 4.70825 210.455 6.01529 204.059C8.77788 191.311 9.68389 178.252 9.77301 165.224C9.80271 158.709 9.44625 152.209 8.71847 145.725C7.97583 139.255 6.99556 132.784 6.25293 126.285L3.84679 106.845L1.58919 87.3905Z" fill="white"/>
<path d="M53.5291 168.931C53.6776 166.848 53.6776 164.633 52.7271 162.727C52.2518 161.796 51.3309 161.073 50.2615 161.073C49.207 161.058 48.1376 160.999 47.0682 160.94C44.9591 160.851 42.7758 160.792 40.8152 161.516C39.8498 161.885 39.018 162.565 38.5873 163.466C38.1269 164.367 38.112 165.416 37.9932 166.479C37.5328 170.689 36.9535 174.899 36.2257 179.08C35.8396 181.162 35.4237 183.245 34.9039 185.328C34.3543 187.411 33.6859 189.39 33.2255 191.429C32.9879 192.448 32.7948 193.467 32.7057 194.472C32.6165 195.476 32.6314 196.51 32.9879 197.352C33.1364 197.796 33.4334 198.091 33.7602 198.357C34.1018 198.549 34.6068 198.741 35.1118 198.874C36.1069 199.169 37.1169 199.391 38.1417 199.524C40.1617 199.76 42.3599 199.716 44.0085 198.608C44.8551 198.061 45.3601 197.249 45.7909 196.259C46.2364 195.299 46.6523 194.339 47.0682 193.364C50.3209 185.594 52.6231 177.351 53.5291 168.931ZM53.5291 168.931C53.1281 173.141 52.3706 177.322 51.3458 181.443C50.3358 185.564 49.103 189.627 47.6029 193.6C47.2316 194.59 46.8305 195.58 46.4147 196.555C46.0434 197.53 45.4195 198.608 44.469 199.258C42.5678 200.602 40.1766 200.72 38.0378 200.499C36.9535 200.381 35.8841 200.159 34.8296 199.864C34.3097 199.716 33.8048 199.568 33.2107 199.243C32.6908 198.874 32.2452 198.372 32.0373 197.796C31.562 196.673 31.562 195.521 31.6363 194.428C31.7254 193.334 31.9036 192.271 32.1413 191.222C32.6314 189.139 33.3443 187.101 33.8939 185.106C34.4434 183.053 34.8741 180.985 35.29 178.917C36.1218 174.781 36.8495 170.615 37.4437 166.42C37.607 165.401 37.6516 164.263 38.1863 163.274C38.7061 162.269 39.6716 161.56 40.6964 161.206C42.7758 160.496 44.974 160.674 47.083 160.792C48.1524 160.866 49.207 160.925 50.2615 160.954C51.3755 160.969 52.3409 161.737 52.8013 162.683C53.737 164.633 53.6925 166.848 53.5291 168.931Z" fill="white"/>
<path d="M39.7606 212.597C40.1319 211.681 40.4141 210.736 40.5478 209.775C40.6963 208.815 40.7112 207.781 40.2656 206.91C40.0725 206.467 39.7012 206.127 39.2853 205.876C38.8546 205.669 38.3793 205.536 37.904 205.403C36.9535 205.137 35.988 204.93 35.0078 204.827C33.0769 204.62 31.0124 204.93 29.4677 206.083C28.7102 206.673 28.1161 207.442 27.6408 208.269C27.2101 209.111 26.8537 210.041 26.512 210.957C25.1456 214.635 23.9574 218.373 22.784 222.125C21.5958 225.862 20.4373 229.614 19.4273 233.396C19.1748 234.341 18.9075 235.287 18.7293 236.217C18.551 237.133 18.4619 238.093 18.7441 238.847C18.9966 239.615 19.7244 240.058 20.6304 240.383C21.5216 240.678 22.5167 241.048 23.393 241.24C24.299 241.432 25.2347 241.446 26.0813 241.181C26.9279 240.9 27.626 240.309 28.131 239.541C28.6508 238.773 28.9033 237.872 29.1707 236.911C29.438 235.951 29.7499 235.021 30.0618 234.09C31.3243 230.353 32.8393 226.719 34.4434 223.129C36.0475 219.525 37.8001 215.994 39.7606 212.597ZM39.7606 212.597C35.9286 219.466 32.869 226.763 30.5965 234.252C30.3143 235.198 30.047 236.129 29.8242 237.074C29.6014 238.019 29.3489 239.053 28.7845 239.94C28.2498 240.841 27.4032 241.609 26.3635 241.993C25.3387 242.362 24.2247 242.377 23.1999 242.17C22.1454 241.934 21.2839 241.609 20.2888 241.313C19.7986 241.136 19.3085 240.929 18.8332 240.59C18.3728 240.25 17.9718 239.762 17.7787 239.216C17.3628 238.108 17.5262 237.03 17.6747 236.025C17.8529 235.021 18.1054 234.075 18.3579 233.115C20.5264 225.522 23.0365 218.077 25.9922 210.765C26.3635 209.849 26.7497 208.948 27.2398 208.062C27.7745 207.205 28.428 206.408 29.2598 205.817C30.953 204.635 33.0769 204.428 35.0226 204.679C36.0029 204.797 36.9832 205.019 37.9337 205.3C38.409 205.433 38.8843 205.58 39.3299 205.802C39.7606 206.053 40.1319 206.422 40.3399 206.88C40.7854 207.796 40.7409 208.83 40.5775 209.79C40.4438 210.736 40.1468 211.681 39.7606 212.597Z" fill="white"/>
</g>
<defs>
<clipPath id="clip0">
<rect width="125" height="316" fill="white" transform="translate(125 316) rotate(180)"/>
</clipPath>
</defs>
</svg>
