<svg width="121" height="312" viewBox="0 0 121 312" fill="none" xmlns="http://www.w3.org/2000/svg">
<g clip-path="url(#clip0)">
<path d="M112.686 305.819C112.686 305.819 116.88 305.331 116.88 301.694C116.88 298.056 119.021 230.481 118.475 194.431C118.475 194.431 119.228 143.816 117.722 128.866C117.722 128.866 121.827 91.6925 119.966 44.2567C119.966 44.2567 118.667 26.3204 118.667 15.674C118.667 15.674 118.962 7.08286 116.585 6.71319C116.585 6.71319 116.068 3.72627 107.665 2.97215C99.2779 2.21803 77.4524 0.547128 54.5046 0.54713C31.5568 0.547132 32.7677 2.04061 26.6247 2.04061C20.4817 2.04061 16.5537 1.75966 15.9039 3.44534C15.9039 3.44534 13.113 4.00723 10.2187 4.28818C7.32436 4.56912 5.65569 4.56913 5.37512 6.25481C5.37512 6.25481 2.11164 5.97386 2.30361 10.7352C2.49558 15.4965 2.95335 37.721 2.95335 37.721C2.95335 37.721 1.4619 38.9335 1.09273 43.2364C0.723557 47.5394 0.723558 55.746 0.62019 58.1858C0.531589 60.6108 0.620182 66.5847 3.32253 67.812C3.32253 67.812 2.84999 70.7102 2.76139 73.2239C2.67279 75.7525 2.67278 77.8965 2.11164 80.0406C1.5505 82.1847 0.708786 81.3418 1.6391 88.0698C2.56942 94.7978 3.13056 98.9972 3.13056 98.9972C3.13056 98.9972 1.72771 99.6478 1.44714 104.128C1.16657 108.609 1.25517 119.166 1.35854 121.784C1.46191 124.401 2.28885 127.388 3.88368 128.881L3.79507 141.494C3.79507 141.494 2.77616 141.494 2.77616 145.516C2.77616 149.538 2.86476 164.473 2.86476 164.473C2.86476 164.473 2.67279 166.528 3.3373 167.933L3.70648 182.039C3.70648 182.039 2.02305 183.252 1.74248 187.925C1.46191 192.597 1.18134 202.031 1.26994 205.107C1.35854 208.182 1.74248 210.43 3.32254 211.554C3.32254 211.554 1.55052 223.975 1.55052 227.716C1.55052 231.457 2.02306 240.979 2.20026 242.931C2.20026 242.931 2.28887 244.232 1.72772 244.987C1.16658 245.741 0.561132 245.829 0.590667 249.556C0.605434 253.297 0.886009 263.662 1.07798 266.738C1.26995 269.813 0.989373 270.375 2.00829 271.13C2.00829 271.13 2.0083 280.756 1.72773 285.325C1.44716 289.894 0.708809 296.814 1.07798 300.644C1.44715 304.474 4.53343 304.193 5.64095 304.193C5.64095 304.193 5.27178 306.337 8.43189 306.529C11.592 306.721 14.2205 306.529 14.2205 306.529C14.2205 306.529 14.5897 308.215 17.292 308.215C19.9944 308.215 24.0996 308.865 27.8356 308.969C27.8356 308.969 29.0465 310.093 31.4683 310.093C33.89 310.093 45.0834 310.566 45.0834 310.566C45.0834 310.566 46.4862 311.128 48.716 311.128C50.9606 311.128 68.0164 311.97 68.6809 311.128C68.6809 311.128 87.1543 311.128 87.5234 310.196C87.5087 310.137 111.475 310.093 112.686 305.819Z" stroke="white" stroke-width="0.75" stroke-miterlimit="10"/>
<path d="M112.686 305.819C112.288 300.585 110.383 295.661 109.246 290.544C108.064 285.443 107.119 280.282 106.484 275.077C105.259 264.682 105.214 254.006 107.636 243.715C110.545 233.66 112.435 223.398 114.237 213.106C115.123 207.961 115.95 202.8 116.703 197.625C117.441 192.449 118.268 187.289 118.608 182.069C118.135 192.523 116.629 202.903 115.093 213.239C113.469 223.561 111.549 233.911 108.729 243.981C106.233 254.066 106.292 264.638 107.326 274.974C107.857 280.164 108.699 285.31 109.762 290.426C110.279 292.984 110.87 295.528 111.505 298.071C112.125 300.614 112.539 303.202 112.686 305.819Z" fill="white"/>
<path d="M103.501 309.161C102.674 305.982 101.67 302.862 100.651 299.742C99.6175 296.637 98.5543 293.517 97.7421 290.337C96.0587 283.994 94.7297 277.547 93.888 271.026C93.0906 264.505 92.7214 257.895 93.4745 251.33C93.7994 248.047 94.582 244.824 95.4237 241.659C96.2507 238.48 97.181 235.331 98.0965 232.181C101.788 219.598 105.628 207.059 108.596 194.298C110.072 187.924 111.357 181.492 112.036 175.001C112.686 168.509 112.701 161.959 112.494 155.423C112.051 142.352 110.471 129.31 107.843 116.49C106.514 110.087 104.904 103.729 102.881 97.5184C101.818 94.4428 100.725 91.3376 99.7504 88.188C98.8201 85.0236 98.0227 81.8297 97.3877 78.6062C96.103 72.1592 95.3499 65.6086 94.9955 59.0433C94.6411 52.478 94.7149 45.8979 95.3794 39.3474C95.7634 36.0943 96.2507 32.7969 97.3729 29.6917C98.4509 26.5865 99.7799 23.57 101.198 20.6126C104.062 14.6979 107.311 9.00504 110.693 3.38608C107.385 9.04938 104.21 14.7867 101.434 20.7309C100.061 23.7031 98.761 26.7195 97.7421 29.8247C96.6641 32.9152 96.2359 36.1682 95.8963 39.4066C95.2908 45.9127 95.2317 52.478 95.6157 59.0138C95.9996 65.5495 96.7823 72.0557 98.0818 78.4583C98.7315 81.667 99.5437 84.8314 100.474 87.9662C101.449 91.0714 102.556 94.147 103.649 97.267C105.716 103.507 107.37 109.88 108.729 116.312C111.431 129.177 113.085 142.263 113.572 155.394C113.764 161.959 113.705 168.554 113.026 175.119C112.302 181.67 110.988 188.132 109.482 194.519C106.44 207.31 102.541 219.834 98.7906 232.403C97.8603 235.553 96.93 238.687 96.0882 241.852C95.2318 245.016 94.4344 248.18 94.1095 251.419C93.3268 257.895 93.6812 264.475 94.4196 270.967C95.1579 277.473 96.3984 283.92 97.9932 290.263C98.7611 293.443 99.78 296.563 100.769 299.697C101.744 302.832 102.719 305.967 103.501 309.161Z" fill="white"/>
<path d="M116.57 6.71326L113.38 21.8105C112.317 26.8232 111.594 31.9099 110.973 37.0113C109.822 47.1993 108.906 57.4761 110.265 67.6494C111.328 77.8522 112.863 88.0255 114.252 98.2136C115.61 108.402 117.161 118.59 117.737 128.866C117.308 123.735 116.526 118.664 115.758 113.577L113.425 98.3319C111.859 88.1734 110.324 78.0001 109.172 67.7529C108.921 65.1948 108.67 62.6219 108.596 60.0342C108.492 57.4466 108.581 54.8589 108.699 52.286C108.95 47.1254 109.438 41.9944 110.146 36.893C110.87 31.7916 111.697 26.7049 112.863 21.6775L116.57 6.71326Z" fill="white"/>
<path d="M5.61137 304.163C4.97639 302.256 4.47431 300.333 4.01654 298.381C3.544 296.43 3.16006 294.493 2.90902 292.467C2.70228 290.456 2.71705 288.312 3.51447 286.36C3.91317 285.384 4.48907 284.497 5.21265 283.757C5.96576 283.048 6.82225 282.486 7.76733 282.116C6.11344 283.255 4.84348 284.807 4.32664 286.641C3.79503 288.46 3.8098 290.411 4.01654 292.348C4.22327 294.286 4.59245 296.252 4.85825 298.219C5.13882 300.2 5.43416 302.167 5.61137 304.163Z" fill="white"/>
<path d="M3.10106 98.9824C3.49976 100.565 3.82463 102.162 4.19381 103.744C4.45961 105.356 5.00598 106.849 6.30547 107.692C7.54589 108.52 9.12595 109.126 10.5879 109.304C10.9423 109.333 11.3114 109.318 11.5477 109.215C11.7987 109.111 11.9169 108.949 12.0055 108.668C12.1679 108.091 11.976 107.307 11.8431 106.494C11.3705 103.271 10.8389 100.062 10.3959 96.8384C9.96765 93.6149 9.53942 90.3766 9.24408 87.1235C9.99719 90.2878 10.6174 93.4818 11.2228 96.6905C11.8283 99.8844 12.3451 103.108 12.921 106.317C13.0096 107.1 13.2902 107.958 13.0096 108.978C12.8767 109.481 12.4485 110.013 11.9169 110.191C11.4 110.383 10.9275 110.368 10.4697 110.309C9.56895 110.206 8.78631 109.925 8.00367 109.629C7.22102 109.318 6.45314 108.919 5.77386 108.372C5.09459 107.825 4.53345 107.1 4.20858 106.287C3.8837 105.489 3.75079 104.631 3.64743 103.832C3.47022 102.221 3.24873 100.609 3.10106 98.9824Z" fill="white"/>
<path d="M14.4715 192.287C16.6275 185.825 18.3405 179.215 19.507 172.532C20.0534 169.19 20.7179 165.804 20.4078 162.521C20.2306 160.939 19.7433 159.223 18.3995 158.588C17.7498 158.262 16.9671 158.174 16.1697 158.188C15.771 158.203 15.3575 158.233 14.9145 158.262C14.4125 158.277 14.1171 158.292 13.7775 158.381C12.4485 158.75 11.8135 160.466 11.5329 162.033C11.2228 163.659 11.2228 165.33 11.208 167.031C11.1637 170.461 10.765 173.877 10.2039 177.248C9.92332 178.934 9.58367 180.605 9.22927 182.276C8.88963 183.947 8.40232 185.588 8.18082 187.259C8.07745 188.087 8.04792 188.96 8.31373 189.758C8.56477 190.586 9.24404 191.148 9.98239 191.547C10.706 191.991 11.4591 192.39 12.2565 192.701C12.6552 192.834 13.0687 192.952 13.4969 192.952C13.9251 192.967 14.3534 192.701 14.4715 192.287ZM14.4715 192.287C14.3534 192.701 13.9251 192.982 13.4969 192.967C13.0687 192.982 12.6552 192.863 12.2417 192.73C11.4443 192.449 10.6764 192.035 9.95286 191.606C9.21451 191.222 8.4614 190.645 8.21036 189.788C7.91502 188.96 7.94455 188.072 8.03315 187.23C8.22512 185.529 8.60906 183.858 8.9044 182.187C9.19973 180.516 9.46554 178.831 9.67228 177.145C10.1005 173.774 10.3368 170.387 10.2777 167.016C10.2629 165.316 10.2334 163.571 10.5435 161.841C10.6912 160.968 10.8979 160.096 11.3262 159.253C11.7396 158.425 12.4632 157.597 13.4821 157.301C13.9695 157.153 14.5306 157.168 14.8702 157.153C15.2837 157.139 15.7119 157.094 16.1697 157.094C17.0557 157.079 18.0156 157.183 18.8868 157.641C19.7728 158.085 20.4226 158.913 20.7622 159.756C21.1462 160.613 21.2791 161.501 21.3677 162.388C21.5892 165.922 20.7475 169.278 20.0682 172.605C19.3446 175.947 18.4734 179.23 17.5283 182.513C16.6127 185.81 15.6086 189.063 14.4715 192.287Z" fill="white"/>
<path d="M3.23398 211.879L4.16429 206.512C4.40056 204.693 5.25704 202.904 6.55653 201.543C7.20627 200.863 7.95939 200.272 8.83063 199.843C9.25887 199.621 9.73141 199.473 10.2483 199.384C10.7503 199.31 11.341 199.34 11.8726 199.725C12.3895 200.139 12.5371 200.745 12.5962 201.233C12.6553 201.75 12.611 202.223 12.5519 202.711C12.419 203.658 12.1827 204.545 11.8726 205.447L11.8874 205.388C11.2229 208.449 10.6617 211.539 10.1006 214.615C9.52468 217.69 9.00783 220.796 8.59436 223.901C8.40239 225.453 8.19565 227.006 8.06275 228.559C7.90032 230.096 7.87078 231.753 7.07337 233.29C6.86663 233.66 6.54177 234.045 6.05446 234.207C5.55239 234.355 5.06507 234.178 4.71067 233.956C3.98709 233.483 3.49978 232.817 3.05677 232.152C2.22982 230.791 1.59485 229.283 1.52101 227.701C1.74252 229.254 2.4661 230.688 3.35212 231.96C3.80989 232.581 4.32673 233.172 4.9617 233.512C5.27181 233.675 5.59668 233.749 5.86249 233.66C6.12829 233.571 6.3498 233.305 6.51223 232.995C7.14721 231.679 7.14721 230.082 7.23581 228.514C7.30964 226.932 7.45732 225.365 7.63452 223.797C8.38763 217.528 9.50991 211.332 10.9128 205.181L10.9128 205.151L10.9275 205.122C11.2229 204.308 11.4591 203.451 11.592 202.593C11.725 201.78 11.7102 200.804 11.2967 200.449C10.8685 200.079 9.89385 200.242 9.15551 200.582C8.37286 200.922 7.66405 201.44 7.04384 202.046C5.78865 203.273 4.94694 204.87 4.563 206.63L3.23398 211.879Z" fill="white"/>
<path d="M1.97874 271.1C2.96813 271.381 3.7803 271.78 4.59248 272.209C5.3899 272.667 6.15778 273.111 6.92566 273.806C5.89198 273.939 4.91736 273.628 4.06087 273.17C3.20439 272.697 2.42175 272.061 1.97874 271.1Z" fill="white"/>
<path d="M78.6633 310.965C75.0897 305.095 71.5309 299.195 68.5775 292.969C65.6389 286.759 63.0547 280.268 62.021 273.392C60.884 266.605 60.4705 259.611 61.2679 252.735C61.9915 245.844 63.9112 239.146 66.1853 232.64C68.5332 226.148 71.4275 219.879 74.4843 213.713C77.541 207.546 80.9817 201.587 83.9351 195.392C85.4265 192.301 86.726 189.122 87.8631 185.884C88.9411 182.631 89.9304 179.333 90.6836 175.992C92.2193 169.308 93.5483 162.521 93.8289 155.689C94.0799 148.843 93.2973 141.997 91.7911 135.313C90.2849 128.63 88.0698 122.124 85.5004 115.78C80.391 103.063 73.4653 91.0566 68.8285 78.0443C66.4215 71.5824 64.3689 64.9284 63.4977 58.0378C63.099 54.5925 62.9808 51.1176 63.2023 47.6427C63.4386 44.1827 64.1327 40.7521 65.0925 37.4251C67.1894 30.8154 70.2019 24.5902 73.5392 18.5573C76.9208 12.5538 80.7307 6.80176 84.954 1.37503L85.0426 1.44898C80.9226 6.94965 77.3195 12.82 74.0117 18.8234C70.763 24.8564 67.8391 31.1112 65.8604 37.6469C64.9596 40.9296 64.3099 44.2861 64.1179 47.7019C63.9407 51.1028 64.0884 54.5186 64.5314 57.8899C65.4912 64.6475 67.47 71.2276 69.8918 77.6302C74.5729 90.539 81.3952 102.531 86.475 115.381C91.5991 128.127 95.1136 141.849 94.4491 155.704C94.1095 162.61 92.7214 169.397 91.1266 176.08C89.4874 182.779 87.2281 189.314 84.3338 195.554C81.4247 201.809 78.0579 207.798 75.0749 213.979C72.0773 220.145 69.3306 226.459 67.0713 232.92C64.8267 239.382 63.0399 246.036 62.2425 252.823C61.386 259.611 61.7257 266.486 62.7889 273.259C63.734 280.031 66.2296 286.493 69.1091 292.718C71.9887 298.943 75.326 304.961 78.7814 310.906L78.6633 310.965Z" fill="white"/>
<path d="M27.8209 308.924C21.7074 297.021 17.8384 283.964 16.347 270.627C15.5643 263.973 15.3133 257.245 15.5791 250.546C15.8744 243.848 16.6423 237.135 18.3257 230.629C19.9649 224.093 22.6672 217.912 25.3548 211.79C28.0867 205.683 30.981 199.636 33.6538 193.514C36.3266 187.392 38.8074 181.182 40.5056 174.75C41.3769 171.541 41.9971 168.273 42.2924 164.976C42.6025 161.693 42.5287 158.321 42.4991 155.009C42.3662 148.355 41.6279 141.716 40.0774 135.239C38.5416 128.763 36.3118 122.449 33.7571 116.298C31.232 110.117 28.2048 104.158 25.591 97.9621C22.9625 91.796 20.718 85.4525 19.0788 78.9316C17.4988 72.4106 16.657 65.6974 16.5537 58.9842C16.4798 55.6277 16.5094 52.2859 16.7014 48.9293C16.9819 45.5875 17.3511 42.2457 17.9861 38.9482C19.2117 32.3533 21.0871 25.8915 23.3908 19.6072C25.7239 13.3376 28.441 7.18634 31.8227 1.41953C28.5149 7.23071 25.8716 13.4116 23.6418 19.7107C21.4268 26.0099 19.6547 32.4864 18.5177 39.0517C17.9122 42.3344 17.5578 45.6466 17.292 48.9736C17.1296 52.3006 17.1148 55.6424 17.2034 58.9842C17.3363 65.6531 18.2076 72.3071 19.8024 78.7689C21.4415 85.2307 23.7009 91.5298 26.3589 97.6515C28.9874 103.788 32.0442 109.747 34.6136 115.958C37.2126 122.138 39.5015 128.482 41.0815 135.018C42.6763 141.553 43.4738 148.281 43.6214 155.009C43.6362 158.381 43.6953 161.708 43.3704 165.094C43.0455 168.465 42.4105 171.792 41.5098 175.031C39.7525 181.537 37.2274 187.777 34.5102 193.898C31.7931 200.02 28.8841 206.053 26.1226 212.145C23.4055 218.237 20.7032 224.374 19.0493 230.836C17.3511 237.283 16.5537 243.937 16.2288 250.605C15.9335 257.274 16.1698 263.958 16.8933 270.597C18.1781 283.861 21.855 296.932 27.8209 308.924Z" fill="white"/>
<path d="M18.0895 308.2C14.9441 302.758 8.44667 275.077 8.03319 262.183C7.61972 249.289 9.15548 225.054 22.4457 191.577C35.7359 158.1 28.7364 137.502 22.4457 120.689C16.155 103.877 8.63862 88.3211 7.84121 64.7954C7.04379 41.2697 14.885 12.2582 17.5431 6.10688" stroke="white" stroke-width="0.75" stroke-miterlimit="10"/>
<path d="M40.0479 310.344C38.2758 307.401 36.7401 304.326 35.2191 301.235C33.7276 298.145 32.2952 295.01 31.0253 291.816C28.5001 285.443 26.2113 278.863 25.34 272.002C24.3802 265.185 23.9372 258.265 24.3507 251.375C24.7198 244.484 26.0193 237.652 27.9981 231.043C32.2066 217.883 38.6598 205.654 45.4968 193.765C52.6145 182.054 56.6163 168.436 56.7049 154.758C56.6606 147.927 55.7008 141.08 53.5448 134.604C52.452 131.38 51.1821 128.186 49.8531 125.037C48.5388 121.872 47.1655 118.738 45.7479 115.618C42.9274 109.378 39.8854 103.226 36.8287 97.0898C35.2929 94.0141 33.7719 90.9385 32.3395 87.8037C30.8924 84.6985 29.5781 81.4454 28.5887 78.148C24.5426 64.973 23.4646 50.6594 26.9053 37.2331L27.5698 34.7341L28.3968 32.2795C28.8988 30.6234 29.6372 29.056 30.2869 27.4591C31.6898 24.3243 33.1665 21.2191 34.7022 18.1434C36.238 15.0678 37.8328 12.0217 39.6196 9.07916C41.3621 6.10703 43.5033 3.40106 45.4821 0.606355L45.5707 0.665498C43.6362 3.50455 41.5836 6.25488 39.9149 9.24182C38.202 12.1992 36.681 15.2896 35.1895 18.3652C32.2657 24.5609 29.2089 30.7417 27.6732 37.4105C24.454 50.7186 25.7092 64.7956 29.6667 77.7931C30.6413 81.061 31.9261 84.1957 33.3732 87.301C34.8056 90.4062 36.3414 93.467 37.8476 96.5575C40.8748 102.724 43.8872 108.89 46.693 115.174C49.4691 121.473 52.1862 127.772 54.357 134.338C56.4686 140.918 57.3547 147.853 57.3104 154.743C57.1479 168.569 52.8065 182.113 45.8513 193.943C39.1323 205.891 32.8268 218.178 28.8693 231.279C24.9266 244.38 24.2325 258.309 26.0931 271.869C26.8906 278.656 29.0908 285.207 31.5569 291.58C34.082 297.938 36.8287 304.252 40.1512 310.255L40.0479 310.344Z" fill="white"/>
<path d="M98.4066 2.23285C94.7001 7.85181 91.54 13.8404 88.8229 19.9917C86.1649 26.1726 83.9351 32.5604 82.6799 39.1701C82.0154 42.4676 81.5281 45.8093 81.1589 49.1364C80.7897 52.4782 80.6421 55.8347 80.9226 59.1765C81.1884 62.5184 81.8234 65.8158 82.6799 69.0541C83.5807 72.2924 84.6143 75.4863 85.7809 78.6359C88.0846 84.9646 90.654 91.1898 93.2087 97.415C95.8077 103.625 98.318 109.91 100.371 116.357C104.55 129.192 107.075 142.707 106.661 156.281C106.455 163.053 105.613 169.796 104.313 176.435C103.058 183.075 101.301 189.64 98.9973 195.998C96.7232 202.371 93.9913 208.567 91.038 214.629C88.1436 220.722 84.7177 226.562 82.355 232.832C79.948 239.087 78.6338 245.741 78.1908 252.439C77.7625 259.137 78.3237 265.88 79.5198 272.49C82.1335 285.694 87.3462 298.308 94.08 309.959C87.1838 298.396 81.7939 285.828 78.9882 272.593C77.7478 265.954 77.1571 259.167 77.5558 252.41C77.9545 245.652 79.2687 238.924 81.661 232.595C84.0385 226.222 87.4348 220.381 90.2996 214.289C93.2235 208.227 95.911 202.061 98.1261 195.717C100.4 189.388 102.113 182.882 103.324 176.273C104.594 169.678 105.377 162.979 105.569 156.281C106.041 142.855 103.605 129.458 99.4994 116.667C97.4911 110.25 95.025 103.995 92.4408 97.7699C89.9009 91.5299 87.361 85.2751 85.0869 78.9168C83.9351 75.7525 82.9162 72.5142 82.0154 69.2611C81.1737 65.9784 80.5387 62.6366 80.2876 59.2505C80.0218 55.8643 80.1843 52.4634 80.5682 49.1068C80.9669 45.7502 81.4542 42.4084 82.1483 39.0962C83.4921 32.4569 85.8252 26.0691 88.5719 19.9178C91.3924 13.7517 94.6263 7.82224 98.4066 2.23285Z" fill="white"/>
<path d="M115.344 12.0954L114.355 25.9062L113.247 39.717C113.085 42.0238 112.834 44.3305 112.716 46.5781C112.642 48.87 112.657 51.1768 112.701 53.4687C112.804 58.0674 113.026 62.6808 113.351 67.2647C113.631 71.8634 114.06 76.4473 114.576 81.0312C115.049 85.6298 115.448 90.2285 115.713 94.842L116.481 108.668C116.688 113.281 116.88 117.894 117.161 122.493C116.23 113.311 115.625 104.084 114.872 94.9011C114.458 90.3024 114.104 85.7038 113.572 81.1347C113.026 76.5508 112.553 71.9373 112.243 67.3239C111.948 62.7104 111.756 58.0822 111.697 53.4687C111.667 51.162 111.667 48.8405 111.771 46.5189C111.904 44.1678 112.199 41.8907 112.42 39.5987L113.823 25.8323L115.344 12.0954Z" fill="white"/>
<path d="M59.2448 311.379C59.2448 311.379 51.9204 299.298 48.2878 290.47C44.6551 281.643 32.5315 255.027 47.0769 225.187C60.1751 198.334 69.4044 185.544 72.343 166.351C75.2817 147.157 69.434 128.157 58.787 104.439C48.9375 82.4951 44.094 72.2183 43.518 53.7349C42.9717 36.5084 55.3759 12.6721 64.9448 0.547025" stroke="white" stroke-width="0.75" stroke-miterlimit="10"/>
<path d="M20.969 147.867C19.9205 140.977 18.7982 134.101 17.3954 127.284C17.041 125.584 16.7013 123.868 16.2879 122.183C15.8744 120.497 15.4905 118.797 14.7226 117.348C14.5158 117.022 14.2944 116.667 14.0581 116.519C13.8218 116.372 13.6446 116.372 13.3345 116.534C12.7438 116.874 12.1679 117.599 11.592 118.235C11.0013 118.915 10.3664 119.492 9.87904 120.142C9.39174 120.793 9.0078 121.517 8.77153 122.286C7.81168 125.436 8.77153 128.97 9.31791 132.356C9.92335 135.787 10.6026 139.202 10.957 142.707C11.0456 143.564 11.0604 144.481 11.0604 145.339C11.0752 146.196 11.1785 147.054 11.4 147.882C11.8283 149.523 12.7291 151.106 14.1467 152.096C15.52 153.087 17.5135 153.279 19.0198 152.436C19.7581 151.993 20.3045 151.253 20.5851 150.44C20.9099 149.627 20.9542 148.74 20.969 147.867ZM20.969 147.867C20.969 148.74 20.9395 149.627 20.6441 150.455C20.3635 151.283 19.8319 152.037 19.0788 152.51C17.5578 153.398 15.52 153.235 14.0728 152.229C12.6109 151.239 11.5772 149.671 11.0752 147.971C10.8241 147.128 10.6765 146.241 10.6174 145.354C10.5879 144.466 10.5436 143.638 10.4107 142.766C9.93811 139.335 9.08163 135.949 8.38759 132.533C8.04795 130.818 7.69355 129.118 7.47204 127.358C7.25054 125.598 7.1767 123.75 7.72308 121.946C8.00365 121.059 8.47619 120.216 9.03733 119.492C9.59847 118.752 10.2778 118.161 10.8389 117.54C11.4443 116.919 11.9612 116.194 12.8767 115.662C13.3197 115.366 14.1319 115.322 14.6044 115.706C15.0918 116.046 15.328 116.475 15.5643 116.889C16.3912 118.56 16.6866 120.305 17.041 122.02C17.3806 123.735 17.6612 125.451 17.9565 127.181C18.5177 130.626 19.005 134.071 19.4923 137.517L20.969 147.867Z" fill="white"/>
<path d="M5.33085 6.25479C5.31608 8.33972 5.18319 10.4099 5.03552 12.48C4.90262 14.5502 4.66634 16.5907 4.44484 18.6461L4.25288 20.1839C4.22334 20.45 4.17904 20.6718 4.16427 20.9972L4.11997 21.7513C4.07567 22.742 4.19381 23.7179 4.51868 24.6199C4.84355 25.5219 5.44899 26.3056 6.30547 26.8083C7.13241 27.3555 8.15131 27.5772 9.17023 27.7842C8.13655 27.8286 7.05858 27.7251 6.03966 27.2963C5.03552 26.8379 4.20857 25.9803 3.73603 24.96C3.23396 23.9545 3.08629 22.8159 3.07153 21.7365C3.07153 21.4703 3.0863 21.1894 3.10107 20.938C3.10107 20.731 3.14536 20.4501 3.17489 20.1987L3.33733 18.6461C3.58836 16.5759 3.8394 14.5058 4.17904 12.4357C4.51867 10.3507 4.87308 8.28057 5.33085 6.25479Z" fill="white"/>
<path d="M11.533 160.081C11.533 160.081 11.1785 149.065 11.1785 147.394" stroke="white" stroke-width="0.75" stroke-miterlimit="10"/>
<path d="M3.29304 167.903C4.44486 169.057 5.58191 170.062 6.74849 171.068C7.91508 172.073 9.14073 173.005 10.3369 174.143C9.53944 173.951 8.7568 173.685 8.04799 173.286C7.32441 172.916 6.6599 172.428 6.02492 171.911C4.81403 170.846 3.70652 169.53 3.29304 167.903Z" fill="white"/>
<path d="M3.75077 141.479C3.75077 141.479 6.09871 139.291 9.90857 137.768" stroke="white" stroke-width="0.75" stroke-miterlimit="10"/>
<path d="M3.66219 182.01C4.29717 180.945 5.24224 180.206 6.27593 179.629C7.30961 179.082 8.47619 178.683 9.70184 178.771C8.742 179.526 7.78215 180.058 6.80754 180.605C5.80339 181.123 4.82878 181.64 3.66219 182.01Z" fill="white"/>
<path d="M1.69818 244.957C1.69818 244.957 3.21917 243.183 6.21686 241.807" stroke="white" stroke-width="0.75" stroke-miterlimit="10"/>
</g>
<defs>
<clipPath id="clip0">
<rect width="121" height="312" fill="white" transform="translate(121 312) rotate(180)"/>
</clipPath>
</defs>
</svg>
