<svg width="115" height="115" viewBox="0 0 115 115" fill="none" xmlns="http://www.w3.org/2000/svg">
<circle cx="57.5" cy="57.5" r="56.5" stroke="#DA291C" stroke-width="2"/>
<circle cx="57.9291" cy="57.9292" r="48.4888" fill="#C4C4C4"/>
<ellipse cx="70.0509" cy="36.2252" rx="1.41771" ry="1.42182" fill="#CC1D1D"/>
<ellipse cx="79.9745" cy="43.3338" rx="1.41771" ry="1.42182" fill="#CC1D1D"/>
<ellipse cx="85.6451" cy="53.2868" rx="1.41771" ry="1.42183" fill="#CC1D1D"/>
<path d="M87.0631 62.5287C87.0631 68.2935 85.3586 73.9289 82.1651 78.7222C78.9716 83.5154 74.4326 87.2513 69.122 89.4574C63.8114 91.6635 57.9678 92.2407 52.3301 91.1161C46.6925 89.9914 41.5139 87.2154 37.4494 83.1391C33.3849 79.0627 30.6169 73.8692 29.4955 68.2151C28.3741 62.5611 28.9496 56.7005 31.1493 51.3745C33.349 46.0485 37.0741 41.4963 41.8535 38.2936C46.6329 35.0908 52.2519 33.3813 58.0001 33.3813L58.0001 63.2397L78.5568 63.2397" stroke="#CC1D1D" stroke-width="3" stroke-linecap="round" stroke-linejoin="round"/>
<path d="M69.4895 27.5364H50.3875C50.3875 24.611 52.124 20.223 60.3933 20.223C67.7529 20.223 69.4895 24.611 69.4895 27.5364Z" stroke="#CC1D1D" stroke-width="3" stroke-linecap="round" stroke-linejoin="round"/>
</svg>
