<svg width="115" height="115" viewBox="0 0 115 115" fill="none" xmlns="http://www.w3.org/2000/svg">
<circle cx="57.5" cy="57.5" r="56.5" stroke="#DA291C" stroke-width="2"/>
<circle cx="57.9291" cy="57.9291" r="48.4888" fill="#C4C4C4"/>
<circle cx="58" cy="58" r="41.5" stroke="#CC1D1D" stroke-width="3"/>
<mask id="mask0" mask-type="alpha" maskUnits="userSpaceOnUse" x="15" y="16" width="84" height="84">
<ellipse cx="56.8056" cy="58" rx="41.8056" ry="41.8056" fill="#C4C4C4"/>
</mask>
<g mask="url(#mask0)">
<path d="M8.76657 56.2761C9.65048 52.6931 13.6234 46.0975 22.4439 48.3795C33.4695 51.232 35.5694 42.6112 36.512 40.2573C37.5789 37.5929 39.0482 34.9426 42.7321 32.9815M79.1071 15.665C75.5621 14.639 67.8638 14.7819 65.4298 23.5616C62.3873 34.5363 53.8715 32.0444 51.3617 31.6838C48.5208 31.2756 45.4909 31.2229 41.9506 33.4327" stroke="#CC1D1D" stroke-width="3" stroke-linecap="round"/>
<path d="M12.4911 62.7271C13.375 59.1441 17.3479 52.5485 26.1684 54.8305C37.194 57.683 39.2939 49.0622 40.2365 46.7083C41.3034 44.0439 42.7727 41.3936 46.4566 39.4325M82.8316 22.116C79.2866 21.09 71.5882 21.2329 69.1542 30.0126C66.1117 40.9873 57.596 38.4955 55.0861 38.1348C52.2453 37.7267 49.2153 37.6739 45.675 39.8837" stroke="#CC1D1D" stroke-width="3" stroke-linecap="round"/>
<path d="M31.1135 94.9822C31.9974 91.3992 35.9703 84.8036 44.7908 87.0856C55.8164 89.9381 57.9163 81.3172 58.8589 78.9634C59.9259 76.299 61.3952 73.6486 65.079 71.6876M101.454 54.3711C97.9091 53.3451 90.2107 53.4879 87.7767 62.2677C84.7342 73.2424 76.2184 70.7505 73.7086 70.3899C70.8677 69.9817 67.8378 69.929 64.2975 72.1388" stroke="#CC1D1D" stroke-width="3" stroke-linecap="round" stroke-dasharray="3 6"/>
<path d="M34.306 100.512C35.1899 96.9286 39.1628 90.3331 47.9833 92.615C59.0089 95.4675 61.1088 86.8467 62.0514 84.4928C63.1184 81.8284 64.5877 79.1781 68.2716 77.217M104.647 59.9005C101.102 58.8745 93.4032 59.0174 90.9692 67.7971C87.9267 78.7718 79.4109 76.28 76.9011 75.9194C74.0602 75.5112 71.0303 75.4585 67.49 77.6682" stroke="#CC1D1D" stroke-width="3" stroke-linecap="round" stroke-dasharray="2.5 5"/>
<path d="M19.4079 74.7076C20.2918 71.1245 24.2648 64.529 33.0853 66.811C44.1109 69.6634 46.2108 61.0426 47.1534 58.6887C48.2203 56.0244 49.6896 53.374 53.3735 51.4129M89.7484 34.0965C86.2035 33.0704 78.5051 33.2133 76.0711 41.9931C73.0286 52.9677 64.5128 50.4759 62.003 50.1153C59.1621 49.7071 56.1322 49.6544 52.5919 51.8642" stroke="#CC1D1D" stroke-linecap="round"/>
<path d="M21.5362 78.3939C22.4201 74.8108 26.3931 68.2153 35.2135 70.4973C46.2392 73.3497 48.3391 64.7289 49.2817 62.375C50.3486 59.7107 51.8179 57.0603 55.5018 55.0992M91.8767 37.7828C88.3318 36.7567 80.6334 36.8996 78.1994 45.6794C75.1569 56.6541 66.6411 54.1622 64.1313 53.8016C61.2904 53.3934 58.2605 53.3407 54.7202 55.5505" stroke="#CC1D1D" stroke-linecap="round"/>
<path d="M23.6645 82.0801C24.5484 78.4971 28.5214 71.9016 37.3418 74.1835C48.3675 77.036 50.4673 68.4152 51.4099 66.0613C52.4769 63.397 53.9462 60.7466 57.6301 58.7855M94.005 41.469C90.4601 40.443 82.7617 40.5859 80.3277 49.3656C77.2852 60.3403 68.7694 57.8485 66.2596 57.4879C63.4187 57.0797 60.3888 57.027 56.8485 59.2367" stroke="#CC1D1D" stroke-linecap="round"/>
</g>
</svg>
