<svg width="115" height="115" viewBox="0 0 115 115" fill="none" xmlns="http://www.w3.org/2000/svg">
<circle cx="57.5" cy="57.5" r="56.5" stroke="#DA291C" stroke-width="2"/>
<circle cx="57.9291" cy="57.9291" r="48.4888" fill="#C4C4C4"/>
<path d="M28 82H53.5M86.5 82H61" stroke="#CC1D1D" stroke-width="3" stroke-linecap="round"/>
<mask id="path-4-inside-1" fill="white">
<rect x="29" y="59" width="9" height="16" rx="1"/>
</mask>
<rect x="29" y="59" width="9" height="16" rx="1" stroke="#CC1D1D" stroke-width="6" mask="url(#path-4-inside-1)"/>
<mask id="path-5-inside-2" fill="white">
<rect x="41" y="55" width="9" height="20" rx="1"/>
</mask>
<rect x="41" y="55" width="9" height="20" rx="1" stroke="#CC1D1D" stroke-width="6" mask="url(#path-5-inside-2)"/>
<mask id="path-6-inside-3" fill="white">
<rect x="53" y="47" width="9" height="28" rx="1"/>
</mask>
<rect x="53" y="47" width="9" height="28" rx="1" stroke="#CC1D1D" stroke-width="6" mask="url(#path-6-inside-3)"/>
<mask id="path-7-inside-4" fill="white">
<rect x="65" y="39" width="9" height="36" rx="1"/>
</mask>
<rect x="65" y="39" width="9" height="36" rx="1" stroke="#CC1D1D" stroke-width="6" mask="url(#path-7-inside-4)"/>
<mask id="path-8-inside-5" fill="white">
<rect x="77" y="29" width="9" height="46" rx="1"/>
</mask>
<rect x="77" y="29" width="9" height="46" rx="1" stroke="#CC1D1D" stroke-width="6" mask="url(#path-8-inside-5)"/>
<circle cx="57" cy="82" r="3.5" stroke="#CC1D1D" stroke-width="3"/>
</svg>
