<svg width="115" height="115" viewBox="0 0 115 115" fill="none" xmlns="http://www.w3.org/2000/svg">
<circle cx="57.5" cy="57.5" r="56.5" stroke="#DA291C" stroke-width="2"/>
<circle cx="57.9291" cy="57.9291" r="48.4888" fill="#C4C4C4"/>
<circle cx="58" cy="57" r="20.5" stroke="#CC1D1D" stroke-width="3"/>
<path d="M63.2957 52.8628C63.2957 53.5325 63.1621 54.1758 62.8947 54.7926C62.6274 55.4095 62.2799 56.0087 61.8521 56.5902C61.4244 57.1542 60.9432 57.7005 60.4085 58.2293C59.8738 58.758 59.348 59.2602 58.8312 59.7361C58.5639 59.9828 58.2698 60.2648 57.949 60.582C57.646 60.8816 57.3519 61.19 57.0668 61.5073C56.7816 61.8245 56.5232 62.1241 56.2915 62.4061C56.0776 62.6704 55.9439 62.8907 55.8905 63.067H63.8572V66.3714H51.5061C51.4705 66.1776 51.4526 65.9308 51.4526 65.6312C51.4526 65.3316 51.4526 65.1201 51.4526 64.9968C51.4526 64.1508 51.5863 63.3754 51.8537 62.6704C52.1388 61.9655 52.5042 61.3134 52.9497 60.7142C53.3953 60.0974 53.8943 59.5246 54.4468 58.9959C55.0172 58.4672 55.5786 57.9385 56.1311 57.4098C56.5588 57.0044 56.9598 56.6255 57.3341 56.273C57.7084 55.9029 58.0381 55.5504 58.3232 55.2156C58.6084 54.8631 58.8312 54.5195 58.9916 54.1846C59.152 53.8321 59.2322 53.4797 59.2322 53.1272C59.2322 52.3517 59.0094 51.8054 58.5639 51.4882C58.1183 51.1709 57.5658 51.0123 56.9064 51.0123C56.4251 51.0123 55.9707 51.0916 55.5429 51.2503C55.133 51.3912 54.7498 51.5675 54.3934 51.779C54.0547 51.9728 53.7607 52.1755 53.5112 52.387C53.2616 52.5808 53.0745 52.7395 52.9497 52.8628L50.9714 50.1135C51.7556 49.3909 52.6646 48.8006 53.6983 48.3423C54.7498 47.8665 55.8726 47.6286 57.0668 47.6286C58.1539 47.6286 59.0896 47.7519 59.8738 47.9987C60.658 48.2454 61.2996 48.5979 61.7986 49.0561C62.3155 49.4967 62.6898 50.043 62.9215 50.6951C63.171 51.3296 63.2957 52.0521 63.2957 52.8628Z" fill="#CC1D1D"/>
<path d="M49.963 25.8681L51.0974 25.583V24.4134V17.5H64.9026V24.5428V25.6937L66.0144 25.9916C68.9156 26.769 71.6536 27.9462 74.1661 29.4609L75.1713 30.0669L76.0013 29.2369L81.0498 24.1884L90.8116 33.9502L85.6338 39.128L84.8224 39.9394L85.3932 40.9349C86.8185 43.4202 87.9178 46.1156 88.6335 48.963L88.9186 50.0974H90.0883H97.5V63.9027H89.9589H88.8079L88.51 65.0144C87.7633 67.8012 86.6477 70.4374 85.2184 72.8679L84.6301 73.8683L85.4507 74.6889L90.8116 80.0498L81.0498 89.8116L75.6889 84.4507L74.8682 83.6301L73.8678 84.2184C71.4374 85.6477 68.8012 86.7633 66.0144 87.51L64.9026 87.8079V88.9589V96.5H51.0974V89.0883V87.9186L49.963 87.6335C47.1156 86.9178 44.4202 85.8185 41.9349 84.3932L40.9394 83.8224L40.128 84.6338L34.9502 89.8116L25.1884 80.0498L30.2369 75.0013L31.0669 74.1713L30.4609 73.1661C28.9462 70.6536 27.769 67.9156 26.9916 65.0144L26.6937 63.9027H25.5428H18.5V50.0974H25.4134H26.583L26.8681 48.963C27.6128 46.0003 28.7729 43.2021 30.2833 40.6338L30.8716 39.6334L30.0509 38.8127L25.1884 33.9502L34.9502 24.1884L39.8127 29.0509L40.6334 29.8716L41.6338 29.2833C44.2021 27.7729 47.0003 26.6128 49.963 25.8681ZM90.9991 33.7627L90.9985 33.7633L90.9991 33.7627Z" stroke="#CC1D1D" stroke-width="3"/>
</svg>
