<svg width="115" height="115" viewBox="0 0 115 115" fill="none" xmlns="http://www.w3.org/2000/svg">
<circle cx="57.5" cy="57.5" r="56.5" stroke="#DA291C" stroke-width="2"/>
<circle cx="57.9291" cy="57.9291" r="48.4888" fill="#C4C4C4"/>
<path d="M40.5 35.5754C45.648 38.3895 51.625 40 58 40C64.375 40 70.352 38.3895 75.5 35.5754M75.5 35.5754L69.5 34M75.5 35.5754L72.5 41" stroke="#CC1D1D" stroke-width="3" stroke-linecap="round" stroke-linejoin="round"/>
<path d="M74.5 80.4246C69.352 77.6105 63.375 76 57 76C50.625 76 44.648 77.6105 39.5 80.4246M39.5 80.4246L45.5 82M39.5 80.4246L42.5 75" stroke="#CC1D1D" stroke-width="3" stroke-linecap="round" stroke-linejoin="round"/>
<path d="M31.5 45.8778C31.5 44.8984 32.4363 44.1414 33.4288 44.3693C39.1462 45.6816 50.3701 48 58.5 48C66.6299 48 77.8538 45.6816 83.5712 44.3693C84.5637 44.1414 85.5 44.8984 85.5 45.8778V68.4336C85.5 69.3629 84.6555 70.0942 83.7107 69.9484C78.0795 69.079 66.7355 67.5 58.5 67.5C50.2645 67.5 38.9205 69.079 33.2893 69.9484C32.3445 70.0942 31.5 69.3629 31.5 68.4336V45.8778Z" stroke="#CC1D1D" stroke-width="3"/>
</svg>
