<svg width="115" height="115" viewBox="0 0 115 115" fill="none" xmlns="http://www.w3.org/2000/svg">
<circle cx="57.5" cy="57.5" r="56.5" stroke="#DA291C" stroke-width="2"/>
<circle cx="57.9291" cy="57.9291" r="48.4888" fill="#C4C4C4"/>
<path d="M46.3636 31.8404H47.8636V30.3404V24.5H67.1364V30.3404V31.8404H68.6364H80.5V48.5V90.5H34.5V48.5V31.8404H46.3636Z" stroke="#CC1D1D" stroke-width="3"/>
<path d="M53.7593 40V38.5C53.133 38.5 52.5727 38.889 52.3539 39.4757L53.7593 40ZM70.6491 40L71.9656 40.7189C72.2194 40.2542 72.2094 39.6901 71.9392 39.2346C71.669 38.7792 71.1787 38.5 70.6491 38.5V40ZM61.7963 56.2105L60.4798 55.4916C60.2187 55.9697 60.2374 56.5518 60.5285 57.0122C60.8197 57.4727 61.3376 57.739 61.8815 57.7081L61.7963 56.2105ZM75 55.4595L76.1387 56.4359C76.5301 55.9794 76.6111 55.3333 76.3445 54.7944C76.0779 54.2554 75.5152 53.9277 74.9148 53.9619L75 55.4595ZM50.5263 84L49.1016 83.5307C48.8775 84.2109 49.1656 84.9547 49.7894 85.3065C50.4132 85.6584 51.1988 85.5201 51.665 84.9764L50.5263 84ZM56.6296 65.4737L58.0543 65.943C58.2094 65.4723 58.1219 64.9553 57.8206 64.5617C57.5192 64.1682 57.0429 63.9489 56.548 63.9759L56.6296 65.4737ZM44 66.1622L42.5946 65.6379C42.4178 66.112 42.4918 66.6432 42.7916 67.0508C43.0914 67.4585 43.5764 67.6875 44.0816 67.6599L44 66.1622ZM53.7593 41.5H70.6491V38.5H53.7593V41.5ZM69.3326 39.2811L60.4798 55.4916L63.1128 56.9295L71.9656 40.7189L69.3326 39.2811ZM61.8815 57.7081L75.0852 56.957L74.9148 53.9619L61.7111 54.7129L61.8815 57.7081ZM73.8613 54.483L49.3876 83.0236L51.665 84.9764L76.1387 56.4359L73.8613 54.483ZM51.951 84.4693L58.0543 65.943L55.2049 65.0043L49.1016 83.5307L51.951 84.4693ZM56.548 63.9759L43.9184 64.6644L44.0816 67.6599L56.7113 66.9715L56.548 63.9759ZM45.4054 66.6864L55.1647 40.5243L52.3539 39.4757L42.5946 65.6379L45.4054 66.6864Z" fill="#CC1D1D"/>
</svg>
