<svg width="115" height="115" viewBox="0 0 115 115" fill="none" xmlns="http://www.w3.org/2000/svg">
<circle cx="57.5" cy="57.5" r="56.5" stroke="#DA291C" stroke-width="2"/>
<circle cx="57.9291" cy="57.9291" r="48.4888" fill="#C4C4C4"/>
<path d="M63.1974 52.9673C63.7619 53.527 63.7619 54.3978 63.1974 54.8954L58.8068 59.1871V65.2825C58.8068 66.0289 58.1796 66.6509 57.4269 66.6509C56.6742 66.6509 56.047 66.0289 56.047 65.2825V59.1871L51.7192 54.8954C51.1547 54.3356 51.1547 53.4648 51.7192 52.9673C52.2837 52.4075 53.1618 52.4075 53.6635 52.9673L57.3015 56.5748H57.6151L61.253 52.9673C61.7547 52.4075 62.6329 52.4075 63.1974 52.9673Z" fill="#FEFEFE"/>
<path d="M57.427 46.7645C63.8874 46.7645 69.0933 51.9892 69.0933 58.3956C69.0933 64.802 63.8247 70.0267 57.3642 70.0267C50.9666 69.9645 45.6979 64.802 45.6979 58.3956C45.6979 51.9892 50.9666 46.7645 57.427 46.7645ZM63.1974 54.9125C63.7619 54.3527 63.7619 53.4819 63.1974 52.9844C62.6329 52.4246 61.7548 52.4246 61.253 52.9844L57.6151 56.5919H57.3642L53.6636 52.9844C53.0991 52.4246 52.221 52.4246 51.7192 52.9844C51.1547 53.5441 51.1547 54.4149 51.7192 54.9125L56.0471 59.2042V65.2996C56.0471 66.046 56.6743 66.668 57.427 66.668C58.1796 66.668 58.8069 66.046 58.8069 65.2996V59.2042L63.1974 54.9125Z" fill="#CC1D1D"/>
<path d="M62.0622 101.791H52.7289V94.6661C49.4308 94.2429 46.27 93.3809 43.307 92.1403L39.7393 98.3106L31.6563 93.6439L35.242 87.4743C32.6399 85.4878 30.3119 83.1603 28.3249 80.5586L22.1473 84.1348L17.4806 76.0519L23.6656 72.5145C22.4185 69.5428 21.5523 66.3716 21.128 63.0623H14V53.7289H21.1193C21.5379 50.4142 22.3998 47.2376 23.6436 44.2605L17.4806 40.7393L22.1473 32.6563L28.3176 36.1737C30.3008 33.5752 32.6239 31.2501 35.2207 29.2647L31.6564 23.1473L39.7394 18.4806L43.2918 24.5887C46.2591 23.3448 49.4251 22.4804 52.7289 22.0566V15H62.0622V22.047C65.3711 22.4645 68.5423 23.3238 71.5151 24.5638L75.0519 18.4805L83.1348 23.1472L79.6245 29.2485C82.2297 31.2374 84.5601 33.568 86.5487 36.1735L92.6439 32.6563L97.3106 40.7392L91.2162 44.2448C92.4636 47.2265 93.3278 50.4084 93.7471 53.7289H100.791V63.0623H93.7384C93.3132 66.3785 92.4443 69.556 91.1931 72.5331L97.3107 76.0519L92.644 84.1349L86.5027 80.6093C84.5176 83.1991 82.1943 85.516 79.5987 87.4939L83.135 93.644L75.052 98.3107L71.5108 92.1606C68.5393 93.3997 65.3695 94.2583 62.0622 94.6757V101.791Z" stroke="#CC1D1D" stroke-width="3" stroke-linejoin="round"/>
<circle cx="57.6412" cy="35.9292" r="5.82915" stroke="#CC1D1D" stroke-width="3"/>
<circle cx="61.6676" cy="79.1912" r="4.70108" fill="#CC1D1D"/>
<rect x="49.4225" y="75.411" width="15.9462" height="7.56036" rx="3.78018" stroke="#CC1D1D" stroke-width="2"/>
</svg>
